<svg xmlns="http://www.w3.org/2000/svg" width="1920" height="919" viewBox="0 0 1920 919">
  <g fill="none" fill-rule="evenodd" stroke="#979797" stroke-width=".5" opacity=".3" transform="translate(-584 -191)">
    <path d="M2524.05562,153.728261 L2566.83444,923.882217 L2940.47774,1091.52686 L2940.47774,153.728261 L2524.05562,153.728261 Z" opacity=".687" transform="rotate(-28.8 2732.26 622.696)"/>
    <path d="M2469.19557,588.98913 L2472.12919,641.803477 L2497.48282,653.179038 L2497.48282,588.98913 L2469.19557,588.98913 Z" opacity=".574" transform="rotate(-36 2483.332 621.152)"/>
    <path d="M2414.33552,311.163043 L2442.47158,817.70103 L2688.1215,927.918168 L2688.1215,311.163043 L2414.33552,311.163043 Z" opacity=".33" transform="rotate(-43.2 2551.221 619.609)"/>
    <path d="M2359.47547,576.641304 L2363.25386,644.664265 L2395.99173,659.352951 L2395.99173,576.641304 L2359.47547,576.641304 Z" opacity=".983" transform="rotate(-50.4 2377.726 618.065)"/>
    <path d="M2304.61542,517.98913 L2313.74405,682.33331 L2393.24873,718.005125 L2393.24873,517.98913 L2304.61542,517.98913 Z" opacity=".109" transform="rotate(-57.6 2348.925 618.065)"/>
    <path d="M2249.75537,354.380435 L2273.66755,784.875353 L2482.39631,878.526864 L2482.39631,354.380435 L2249.75537,354.380435 Z" opacity=".901" transform="rotate(-64.8 2366.069 616.522)"/>
    <path d="M2194.89532,542.684783 L2201.48962,661.403122 L2258.8416,687.13556 L2258.8416,542.684783 L2194.89532,542.684783 Z" opacity=".035" transform="rotate(-72 2226.861 614.978)"/>
    <path d="M2140.03526,203.119565 L2177.60464,879.487071 L2505.71183,1026.70078 L2505.71183,203.119565 L2140.03526,203.119565 Z" opacity=".74" transform="rotate(-79.2 2322.866 614.978)"/>
    <path d="M2085.17521,301.902174 L2113.59287,813.509699 L2361.7042,924.831212 L2361.7042,301.902174 L2085.17521,301.902174 Z" opacity=".754" transform="rotate(-86.4 2223.433 613.435)"/>
    <path d="M2030.31516,85.8152174 L2078.44423,952.290394 L2498.85433,1140.91817 L2498.85433,85.8152174 L2030.31516,85.8152174 Z" opacity=".469" transform="rotate(-93.6 2264.578 613.435)"/>
    <path d="M1935.68157,567.380435 L1939.74156,640.472933 L1974.94084,656.265994 L1974.94084,567.380435 L1935.68157,567.380435 Z" opacity=".922" transform="rotate(-100.8 1955.304 611.891)"/>
    <path d="M1920.59506,169.163043 L1960.98036,896.225928 L2313.70165,1054.48339 L2313.70165,169.163043 L1920.59506,169.163043 Z" opacity=".32" transform="rotate(-108 2117.141 611.891)"/>
    <path d="M1865.73501,308.076087 L1893.44868,807.009767 L2135.40649,915.570342 L2135.40649,308.076087 L1865.73501,308.076087 Z" opacity=".651" transform="rotate(-115.2 2000.564 611.891)"/>
    <path d="M1799.90295,598.25 L1801.00622,618.112351 L1810.36069,622.309473 L1810.36069,598.25 L1799.90295,598.25 Z" opacity=".056" transform="rotate(-122.4 1805.125 610.348)"/>
    <path d="M1756.01491,286.467391 L1785.41813,815.818299 L2042.1444,931.005125 L2042.1444,286.467391 L1756.01491,286.467391 Z" opacity=".255" transform="rotate(-129.6 1899.073 608.804)"/>
    <path d="M1701.15486,357.467391 L1723.94068,767.684158 L1922.82379,856.918168 L1922.82379,357.467391 L1701.15486,357.467391 Z" opacity=".729" transform="rotate(-136.8 1811.982 607.26)"/>
    <path d="M1646.29481,246.336957 L1679.07713,836.522318 L1965.34033,964.961646 L1965.34033,246.336957 L1646.29481,246.336957 Z" opacity=".297" transform="rotate(-144 1805.81 605.717)"/>
    <path d="M1591.43476,551.945652 L1596.33951,640.246764 L1638.92303,659.352951 L1638.92303,551.945652 L1591.43476,551.945652 Z" opacity=".055" transform="rotate(-151.2 1615.172 605.717)"/>
    <path d="M1536.5747,298.815217 L1564.56997,802.818435 L1808.98919,912.483386 L1808.98919,298.815217 L1536.5747,298.815217 Z" opacity=".513" transform="rotate(-158.4 1672.775 605.717)"/>
    <path d="M1481.71465,564.293478 L1485.35225,629.78167 L1516.85941,643.918168 L1516.85941,564.293478 L1481.71465,564.293478 Z" opacity=".809" transform="rotate(-165.6 1499.28 604.174)"/>
    <path d="M1426.8546,564.293478 L1430.3514,627.246901 L1460.62786,640.831212 L1460.62786,564.293478 L1426.8546,564.293478 Z" opacity=".366" transform="rotate(-172.8 1443.734 602.63)"/>
    <path d="M1371.99455,465.51087 L1384.36149,688.154735 L1492.17239,736.526864 L1492.17239,465.51087 L1371.99455,465.51087 Z" opacity=".048" transform="rotate(180 1432.076 601.087)"/>
    <path d="M1317.1345,366.728261 L1338.51237,751.597339 L1525.08842,835.309473 L1525.08842,366.728261 L1317.1345,366.728261 Z" opacity=".039" transform="rotate(172.8 1421.104 601.087)"/>
    <path d="M1262.27445,292.641304 L1290.41051,799.179291 L1536.06043,909.396429 L1536.06043,292.641304 L1262.27445,292.641304 Z" opacity=".092" transform="rotate(165.6 1399.16 601.087)"/>
    <path d="M1207.4144,391.423913 L1226.39873,733.201919 L1392.0528,807.526864 L1392.0528,391.423913 L1207.4144,391.423913 Z" opacity=".021" transform="rotate(158.4 1299.726 599.543)"/>
    <path d="M1152.55435,258.684783 L1183.64712,818.452917 L1455.14186,940.265994 L1455.14186,258.684783 L1152.55435,258.684783 Z" opacity=".506" transform="rotate(151.2 1303.841 599.543)"/>
    <path d="M1097.6943,39.5108696 L1148.63928,956.681424 L1593.66349,1156.35295 L1593.66349,39.5108696 L1097.6943,39.5108696 Z" opacity=".048" transform="rotate(144 1345.672 598)"/>
    <path d="M1042.83425,304.98913 L1069.42155,783.644659 L1301.53372,887.787733 L1301.53372,304.98913 L1042.83425,304.98913 Z" opacity=".609" transform="rotate(136.8 1172.177 596.457)"/>
    <path d="M987.974195,360.554348 L1009.49286,747.958194 L1197.29962,832.222516 L1197.29962,360.554348 L987.974195,360.554348 Z" opacity=".422" transform="rotate(129.6 1092.63 596.457)"/>
    <path d="M933.114145,354.380435 L955.195988,751.923357 L1147.92557,838.396429 L1147.92557,354.380435 L933.114145,354.380435 Z" opacity=".871" transform="rotate(122.4 1040.513 596.457)"/>
    <path d="M843.966562,558.119565 L847.463361,621.072988 L877.739822,634.657299 L877.739822,558.119565 L843.966562,558.119565 Z" opacity=".182" transform="rotate(115.2 860.846 596.457)"/>
    <path d="M823.394043,258.684783 L854.064429,810.84861 L1121.86705,931.005125 L1121.86705,258.684783 L823.394043,258.684783 Z" opacity=".039" transform="rotate(108 972.623 594.913)"/>
    <path d="M768.533992,141.380435 L809.904858,886.186702 L1171.24109,1048.30947 L1171.24109,141.380435 L768.533992,141.380435 Z" opacity=".441" transform="rotate(100.8 969.88 594.913)"/>
    <path d="M713.673941,274.119565 L742.93637,800.935704 L998.431934,915.570342 L998.431934,274.119565 L713.673941,274.119565 Z" opacity=".592" transform="rotate(93.6 856.046 594.913)"/>
    <path d="M658.81389,551.945652 L662.733076,622.503381 L696.701654,637.744255 L696.701654,551.945652 L658.81389,551.945652 Z" opacity=".194" transform="rotate(86.4 677.75 594.913)"/>
    <path d="M603.953839,218.554348 L638.284916,836.622168 L938.085878,971.13556 L938.085878,218.554348 L603.953839,218.554348 Z" opacity=".82" transform="rotate(79.2 771.013 594.913)"/>
    <path d="M549.093788,391.423913 L567.655737,725.597612 L729.617684,798.265994 L729.617684,391.423913 L549.093788,391.423913 Z" opacity=".121" transform="rotate(72 639.349 594.913)"/>
    <path d="M494.233737,162.98913 L533.633463,872.308632 L877.739822,1026.70078 L877.739822,162.98913 L494.233737,162.98913 Z" opacity=".439" transform="rotate(64.8 685.98 594.913)"/>
    <path d="M384.513636,379.076087 L404.061155,730.993168 L574.638041,807.526864 L574.638041,379.076087 L384.513636,379.076087 Z" opacity=".833" transform="rotate(50.4 479.569 593.37)"/>
    <path d="M329.653585,366.728261 L350.32747,738.923494 L530.75,819.87469 L530.75,366.728261 L329.653585,366.728261 Z" opacity=".893" transform="rotate(43.2 430.195 593.37)"/>
  </g>
</svg>
