<svg xmlns="http://www.w3.org/2000/svg" width="985" height="1014" viewBox="0 0 985 1014">
  <g fill="none" fill-rule="evenodd" stroke="#979797" opacity=".235" transform="rotate(110 654.818 529.33)">
    <path d="M715.554723,1179.66797 C1013.24123,1179.66797 1203.23437,932.863917 1203.23437,654.141508 C1203.23437,375.419099 954.73686,188.667969 676.16693,188.667969 C397.597001,188.667969 171.234375,363.917923 171.234375,671.929152 C171.234375,1081.30459 417.868218,1179.66797 715.554723,1179.66797 Z" opacity="0" transform="rotate(21.167 687.234 684.168)"/>
    <path d="M715.005879,1170.16797 C1006.92327,1170.16797 1193.23437,928.095781 1193.23437,654.717192 C1193.23437,381.338603 949.552703,198.167969 676.381416,198.167969 C403.210128,198.167969 181.234375,370.057934 181.234375,672.163801 C181.234375,1073.69047 423.088492,1170.16797 715.005879,1170.16797 Z" opacity=".043" transform="rotate(-20.053 687.234 684.168)"/>
    <path d="M714.457035,1160.66797 C1000.6053,1160.66797 1183.23437,923.327645 1183.23437,655.292876 C1183.23437,387.258107 944.368546,207.667969 676.595901,207.667969 C408.823256,207.667969 191.234375,376.197945 191.234375,672.398451 C191.234375,1066.07635 428.308767,1160.66797 714.457035,1160.66797 Z" opacity=".087" transform="rotate(-40.113 687.234 684.168)"/>
    <path d="M713.935633,1151.16797 C994.60324,1151.16797 1173.73437,918.559508 1173.73437,655.86856 C1173.73437,393.177611 939.443598,217.167969 676.799662,217.167969 C414.155727,217.167969 200.734375,382.337956 200.734375,672.6331 C200.734375,1058.46222 433.268027,1151.16797 713.935633,1151.16797 Z" opacity=".13" transform="rotate(-54.207 687.234 684.168)"/>
    <path d="M713.414232,1142.16797 C988.601175,1142.16797 1164.23437,914.042327 1164.23437,656.413945 C1164.23437,398.785562 934.518649,226.167969 677.003423,226.167969 C419.488198,226.167969 210.234375,388.154808 210.234375,672.855399 C210.234375,1051.24884 438.227288,1142.16797 713.414232,1142.16797 Z" opacity=".174" transform="rotate(-63.506 687.234 684.168)"/>
    <path d="M712.89283,1133.16797 C982.599111,1133.16797 1154.73437,909.525145 1154.73437,656.959329 C1154.73437,404.393514 929.5937,235.167969 677.207184,235.167969 C424.820669,235.167969 219.734375,393.971661 219.734375,673.077699 C219.734375,1044.03546 443.186549,1133.16797 712.89283,1133.16797 Z" opacity=".587" transform="rotate(-85.701 687.234 684.168)"/>
    <path d="M712.39887,1124.16797 C976.912945,1124.16797 1145.73437,905.007963 1145.73437,657.504714 C1145.73437,410.001465 924.927959,244.167969 677.400221,244.167969 C429.872483,244.167969 228.734375,399.788513 228.734375,673.299998 C228.734375,1036.82208 447.884795,1124.16797 712.39887,1124.16797 Z" opacity=".261" transform="rotate(-156.231 687.234 684.168)"/>
    <path d="M711.904911,1115.66797 C971.226779,1115.66797 1136.73437,900.741736 1136.73437,658.0198 C1136.73437,415.297863 920.262218,252.667969 677.593258,252.667969 C434.924298,252.667969 237.734375,405.282207 237.734375,673.509948 C237.734375,1030.00945 452.583042,1115.66797 711.904911,1115.66797 Z" opacity=".304" transform="rotate(-157.083 687.234 684.168)"/>
    <path d="M711.410951,1107.16797 C965.540613,1107.16797 1127.73437,896.475509 1127.73437,658.534885 C1127.73437,420.594261 915.596477,261.167969 677.786295,261.167969 C439.976113,261.167969 246.734375,410.775901 246.734375,673.719897 C246.734375,1023.19681 457.281289,1107.16797 711.410951,1107.16797 Z" opacity=".348" transform="rotate(179.69 687.234 684.168)"/>
    <path d="M710.944434,1098.66797 C960.170345,1098.66797 1119.23437,892.209282 1119.23437,659.049971 C1119.23437,425.89066 911.189944,269.667969 677.968607,269.667969 C444.747271,269.667969 255.234375,416.269596 255.234375,673.929847 C255.234375,1016.38418 461.718522,1098.66797 710.944434,1098.66797 Z" opacity=".391" transform="rotate(84.582 687.234 684.168)"/>
    <path d="M710.477916,1090.66797 C954.800077,1090.66797 1110.73437,888.194009 1110.73437,659.534757 C1110.73437,430.875505 906.78341,277.667969 678.15092,277.667969 C449.518429,277.667969 263.734375,421.440131 263.734375,674.127446 C263.734375,1009.97228 466.155756,1090.66797 710.477916,1090.66797 Z" opacity=".435" transform="rotate(-4.882 687.234 684.168)"/>
    <path d="M710.011399,1082.66797 C949.429809,1082.66797 1102.23437,884.178737 1102.23437,660.019544 C1102.23437,435.860351 902.376877,285.667969 678.333232,285.667969 C454.289588,285.667969 272.234375,426.610667 272.234375,674.325045 C272.234375,1003.56039 470.592989,1082.66797 710.011399,1082.66797 Z" transform="rotate(-49.576 687.234 684.168)"/>
    <path d="M709.572324,1074.66797 C944.375439,1074.66797 1094.23437,880.163464 1094.23437,660.50433 C1094.23437,440.845196 898.229552,293.667969 678.504821,293.667969 C458.780089,293.667969 280.234375,431.781202 280.234375,674.522645 C280.234375,997.148496 474.769208,1074.66797 709.572324,1074.66797 Z" opacity=".522" transform="rotate(-64.284 687.234 684.168)"/>
    <path d="M709.133249,1067.16797 C939.32107,1067.16797 1086.23437,876.399146 1086.23437,660.958817 C1086.23437,445.518489 894.082227,301.167969 678.676409,301.167969 C463.270591,301.167969 288.234375,436.628579 288.234375,674.707894 C288.234375,991.137347 478.945428,1067.16797 709.133249,1067.16797 Z" opacity=".565" transform="rotate(-89.879 687.234 684.168)"/>
    <path d="M708.694174,1059.66797 C934.2667,1059.66797 1078.23437,872.634828 1078.23437,661.413305 C1078.23437,450.191782 889.934901,308.667969 678.847997,308.667969 C467.761093,308.667969 296.234375,441.475956 296.234375,674.893144 C296.234375,985.126197 483.121647,1059.66797 708.694174,1059.66797 Z" opacity=".609" transform="rotate(-178.711 687.234 684.168)"/>
    <path d="M708.282541,1052.16797 C929.528228,1052.16797 1070.73437,868.87051 1070.73437,661.867792 C1070.73437,454.865074 886.046784,316.167969 679.008861,316.167969 C471.970939,316.167969 303.734375,446.323333 303.734375,675.078393 C303.734375,979.115047 487.036853,1052.16797 708.282541,1052.16797 Z" opacity=".652" transform="rotate(127.954 687.234 684.168)"/>
    <path d="M707.870908,1045.16797 C924.789756,1045.16797 1063.23437,865.357146 1063.23437,662.29198 C1063.23437,459.226814 882.158666,323.167969 679.169725,323.167969 C476.180784,323.167969 311.234375,450.847552 311.234375,675.251293 C311.234375,973.504641 490.952059,1045.16797 707.870908,1045.16797 Z" opacity=".696" transform="rotate(42.241 687.234 684.168)"/>
    <path d="M710.247249,1007.92161 C898.759347,1007.92161 1019.07386,851.658035 1019.07386,675.185402 C1019.07386,498.712769 861.711039,380.4716 685.304649,380.4716 C508.89826,380.4716 365.552516,491.430819 365.552516,686.447619 C365.552516,945.643003 521.735152,1007.92161 710.247249,1007.92161 Z" opacity=".537" transform="rotate(42.241 692.313 694.197)"/>
    <path d="M707.459275,1038.16797 C920.051285,1038.16797 1055.73437,861.843783 1055.73437,662.716168 C1055.73437,463.588554 878.270549,330.167969 679.330589,330.167969 C480.39063,330.167969 318.734375,455.371771 318.734375,675.424192 C318.734375,967.894235 494.867265,1038.16797 707.459275,1038.16797 Z" opacity=".739" transform="rotate(-55.61 687.234 684.168)"/>
    <path d="M705.017544,995.429926 C891.943548,995.429926 1011.24576,840.393171 1011.24576,665.306021 C1011.24576,490.218872 855.206955,372.906011 680.284805,372.906011 C505.362655,372.906011 363.222987,482.994091 363.222987,676.479819 C363.222987,933.640265 518.091541,995.429926 705.017544,995.429926 Z" opacity=".328" transform="rotate(-55.61 687.234 684.168)"/>
    <path d="M707.075084,1031.16797 C915.628711,1031.16797 1048.73437,858.330419 1048.73437,663.140356 C1048.73437,467.950294 874.641639,337.167969 679.480729,337.167969 C484.319819,337.167969 325.734375,459.895989 325.734375,675.597092 C325.734375,962.283828 498.521457,1031.16797 707.075084,1031.16797 Z" opacity=".783" transform="rotate(-59.252 687.234 684.168)"/>
    <path d="M706.690893,1024.16797 C911.206138,1024.16797 1041.73437,854.817055 1041.73437,663.564545 C1041.73437,472.312034 871.012729,344.167969 679.630869,344.167969 C488.249008,344.167969 332.734375,464.420208 332.734375,675.769992 C332.734375,956.673422 502.175649,1024.16797 706.690893,1024.16797 Z" opacity=".251" transform="rotate(-157.189 687.234 684.168)"/>
    <path d="M706.306702,1017.66797 C906.783564,1017.66797 1034.73437,851.554646 1034.73437,663.958434 C1034.73437,476.362221 867.38382,350.667969 679.781009,350.667969 C492.178198,350.667969 339.734375,468.621268 339.734375,675.930541 C339.734375,951.463759 505.829841,1017.66797 706.306702,1017.66797 Z" opacity=".87" transform="rotate(173.022 687.234 684.168)"/>
    <path d="M705.922512,1011.16797 C902.36099,1011.16797 1027.73437,848.292237 1027.73437,664.352323 C1027.73437,480.412408 863.75491,357.167969 679.931148,357.167969 C496.107387,357.167969 346.734375,472.822328 346.734375,676.091091 C346.734375,946.254096 509.484033,1011.16797 705.922512,1011.16797 Z" opacity=".604" transform="rotate(74.967 687.234 684.168)"/>
    <path d="M705.566406,1004.73437 C898.261719,1004.73437 1021.24609,845.063158 1021.24609,664.742187 C1021.24609,484.421217 860.391283,363.601562 680.070312,363.601562 C499.749342,363.601562 353.222656,476.980469 353.222656,676.25 C353.222656,941.097656 512.871094,1004.73437 705.566406,1004.73437 Z" opacity=".122"/>
  </g>
</svg>
