<svg xmlns="http://www.w3.org/2000/svg" width="1878" height="691" viewBox="0 0 1878 691">
  <g fill="none" fill-rule="evenodd" stroke="#979797" stroke-width=".5" opacity=".235" transform="translate(-5 -71)">
    <path d="M1334.44496,399.039036 C1324.30701,456.946879 1329.89546,523.254194 1348.25689,581.820937 C1365.91914,638.157492 1393.45275,680.634318 1422.31289,694.804065 C1443.09654,705.008417 1465.59912,712.186225 1502.44669,721.314015 C1509.98441,723.181243 1537.77631,729.877997 1538.2485,729.992797 C1553.36917,733.668935 1565.40126,736.713265 1577.55713,739.990393 C1609.12052,748.49964 1638.05167,757.731168 1667.84951,769.209692 C1702.46892,782.545548 1734.50382,769.621747 1764.47837,734.135971 C1789.20967,704.857491 1811.6932,661.464643 1833.38407,605.246431 C1841.2427,584.878478 1848.76803,563.455829 1856.74599,539.17198 C1859.79364,529.895357 1862.7723,520.624202 1866.41249,509.138945 C1866.77321,508.000854 1873.10234,487.966652 1874.7783,482.712189 C1889.14069,437.683201 1885.81825,389.61687 1867.10486,332.469753 C1859.29515,308.620419 1848.90506,283.296239 1834.83912,252.979321 C1829.17675,240.774973 1823.04194,228.003628 1815.1482,211.896042 C1811.67334,204.805412 1797.83315,176.749077 1794.43931,169.826966 C1791.9203,164.689167 1789.61343,159.961075 1787.40641,155.409095 C1759.20908,97.2521498 1723.2044,75.0027233 1676.3164,84.7407074 C1633.19409,93.69661 1580.49447,129.355932 1509.97101,194.851808 C1481.29603,221.482562 1456.45517,241.79953 1430.12875,261.074823 C1425.44323,264.505393 1420.81591,267.830345 1415.34678,271.711428 C1413.11486,273.295275 1404.42392,279.435216 1402.32545,280.925797 C1392.49325,287.909806 1386.43396,292.424907 1380.94428,296.976629 C1355.01807,318.47311 1344.70399,340.439561 1334.44496,399.039036 Z" opacity=".66" transform="rotate(-7.2 1606.547 428.432)"/>
    <path d="M1307.27015,399.280544 C1297.2314,456.724843 1302.76517,522.501423 1320.94696,580.599372 C1338.43632,636.484741 1365.70038,678.621317 1394.27755,692.677348 C1414.85773,702.799956 1437.14008,709.920288 1473.6271,718.975009 C1481.0911,720.827295 1508.61118,727.470471 1509.07877,727.584354 C1524.05157,731.231086 1535.96602,734.251066 1548.00303,737.501983 C1579.25781,745.943176 1607.90611,755.100877 1637.41262,766.487605 C1671.69218,779.716275 1703.41264,766.896331 1733.09343,731.695178 C1757.58268,702.651146 1779.84624,659.605616 1801.32491,603.837349 C1809.10668,583.632377 1816.5584,562.381144 1824.45833,538.291601 C1827.47616,529.089202 1830.42569,519.892224 1834.03028,508.498859 C1834.38747,507.369876 1840.6547,487.495953 1842.31427,482.283525 C1856.53609,437.615149 1853.24616,389.933688 1834.71588,333.244069 C1826.98258,309.585612 1816.69413,284.464095 1802.76578,254.389783 C1797.15879,242.283087 1791.08398,229.613929 1783.26745,213.635221 C1779.82657,206.601321 1766.12174,178.769449 1762.76109,171.902714 C1760.26671,166.806017 1757.98241,162.115749 1755.79697,157.600185 C1727.87581,99.9093596 1692.22434,77.8386076 1645.79627,87.4983986 C1603.09633,96.3825194 1550.9124,131.756352 1481.07897,196.72794 C1452.68436,223.145701 1428.08638,243.300182 1402.01735,262.421317 C1397.37765,265.82445 1392.79558,269.122808 1387.37993,272.972847 C1385.16983,274.544025 1376.56389,280.634843 1374.48595,282.113497 C1364.74995,289.041599 1358.74996,293.520548 1353.31402,298.035807 C1327.64182,319.359935 1317.42879,341.15027 1307.27015,399.280544 Z" opacity=".126" transform="rotate(-14.4 1576.709 428.438)"/>
    <path d="M1280.09535,399.522163 C1270.15579,456.50294 1275.63488,521.748809 1293.63703,579.377985 C1310.95351,634.81219 1337.94802,676.60853 1366.24223,690.55085 C1386.61892,700.591717 1408.68104,707.654575 1444.80752,716.636229 C1452.19779,718.473575 1479.44606,725.063174 1479.90903,725.176141 C1494.73398,728.793469 1506.53077,731.789099 1518.44892,735.013806 C1549.39511,743.386949 1577.76055,752.470826 1606.97574,763.765763 C1640.91544,776.887249 1672.32145,764.17116 1701.70849,729.25462 C1725.95569,700.445024 1747.99929,657.746797 1769.26574,602.428454 C1776.97065,582.386457 1784.34876,561.306632 1792.17066,537.411386 C1795.15869,528.283206 1798.07908,519.160404 1801.64807,507.858927 C1802.00172,506.73905 1808.20706,487.0254 1809.85024,481.855005 C1823.93148,437.547224 1820.67407,390.250615 1802.3269,334.018472 C1794.67,310.550882 1784.48319,285.63202 1770.69243,255.800302 C1765.14082,243.791255 1759.12602,231.224278 1751.38669,215.374442 C1747.9798,208.397271 1734.41033,180.78985 1731.08287,173.978491 C1728.61313,168.922894 1726.35138,164.270449 1724.18752,159.791297 C1696.54254,102.566573 1661.24428,80.6744907 1615.27615,90.2560902 C1572.99857,99.0684315 1521.33033,134.156788 1452.18694,198.604108 C1424.0727,224.808886 1399.71759,244.800888 1373.90597,263.767873 C1369.31208,267.143569 1364.77525,270.415334 1359.41308,274.234331 C1357.22481,275.792839 1348.70386,281.834537 1346.64645,283.301264 C1337.00666,290.173461 1331.06596,294.61626 1325.68377,299.095058 C1300.26557,320.24684 1290.15358,341.861067 1280.09535,399.522163 Z" opacity=".348" transform="rotate(-21.6 1546.87 428.444)"/>
    <path d="M1252.92055,399.763897 C1243.08018,456.281174 1248.5046,520.996357 1266.32709,578.156782 C1283.47069,633.139843 1310.19566,674.595965 1338.2069,688.424577 C1358.38012,698.383706 1380.222,705.389093 1415.98794,714.297684 C1423.30448,716.12009 1450.28094,722.656115 1450.7393,722.768165 C1465.41639,726.35609 1477.09553,729.327372 1488.89482,732.52587 C1519.53241,740.830966 1547.615,749.841023 1576.53886,761.044172 C1610.13869,774.058476 1641.23026,761.44624 1670.32354,726.814303 C1694.3287,698.239132 1716.15233,655.888192 1737.20658,601.019753 C1744.83461,581.140723 1752.13912,560.232298 1759.88299,536.531341 C1762.84121,527.477377 1765.73247,518.428746 1769.26586,507.219152 C1769.61598,506.108382 1775.75943,486.554996 1777.38621,481.426633 C1791.32687,437.479429 1788.10198,390.567652 1769.93792,334.792963 C1762.35742,311.516233 1752.27225,286.800016 1738.61908,257.21088 C1733.12286,245.299477 1727.16806,232.834678 1719.50594,217.113708 C1716.13303,210.193262 1702.69891,182.810284 1699.40464,176.054296 C1696.95954,171.039798 1694.72035,166.425174 1692.57808,161.982434 C1665.20927,105.223791 1630.26422,83.5103724 1584.75603,93.0137821 C1542.90081,101.754347 1491.74827,136.557238 1423.29491,200.480314 C1395.46105,226.472118 1371.34881,246.301649 1345.79458,265.114491 C1341.24651,268.462751 1336.75493,271.707925 1331.44623,275.495881 C1329.27979,277.041721 1320.84384,283.034301 1318.80695,284.489101 C1309.26336,291.305396 1303.38196,295.712045 1298.05352,300.154384 C1272.88932,321.133828 1262.87838,342.571957 1252.92055,399.763897 Z" opacity=".309" transform="rotate(-28.8 1517.032 428.45)"/>
    <path d="M1225.74574,400.005749 C1216.00457,456.059549 1221.37431,520.244072 1239.01716,576.93577 C1255.98788,631.467709 1282.4433,672.583628 1310.17158,686.298536 C1330.14131,696.175931 1351.76297,703.123849 1387.16836,711.959379 C1394.41117,713.766847 1421.11582,720.249299 1421.56957,720.360433 C1436.0988,723.918957 1447.66029,726.865892 1459.34072,730.038182 C1489.66971,738.275235 1517.46944,747.211475 1546.10198,758.322842 C1579.36195,771.229965 1610.13907,758.72158 1638.93859,724.374234 C1662.70171,696.033479 1684.30536,654.029808 1705.14742,599.611251 C1712.69858,579.89518 1719.92948,559.158147 1727.59532,535.651469 C1730.52373,526.671718 1733.38586,517.697255 1736.88364,506.57954 C1737.23024,505.477876 1743.31179,486.084748 1744.92218,480.998414 C1758.72227,437.411769 1755.52989,390.884804 1737.54894,335.567546 C1730.04484,312.481666 1720.06131,287.968084 1706.54573,258.62152 C1701.10489,246.807757 1695.2101,234.44513 1687.62518,218.85302 C1684.28626,211.989297 1670.9875,184.83075 1667.72642,178.130131 C1665.30595,173.15673 1663.08932,168.579925 1660.96863,164.173595 C1633.876,107.881012 1599.28415,86.3462526 1554.23591,95.7714745 C1512.80306,104.440265 1462.16621,138.957705 1394.40289,202.356559 C1366.84939,228.1354 1342.98003,247.802467 1317.6832,266.461174 C1313.18094,269.782 1308.7346,273.000583 1303.47939,276.757499 C1301.33477,278.290672 1292.98381,284.234136 1290.96745,285.677011 C1281.52007,292.437406 1275.69797,296.807907 1270.42327,301.213788 C1245.51308,322.020902 1235.60318,343.282942 1225.74574,400.005749 Z" opacity=".167" transform="rotate(-36 1487.193 428.457)"/>
    <path d="M1198.57094,400.247722 C1188.92896,455.838068 1194.24403,519.49196 1211.70723,575.714954 C1228.50507,629.795792 1254.69095,670.571526 1282.13626,684.172735 C1301.90252,693.968399 1323.30394,700.858851 1358.34878,709.621324 C1365.51787,711.413852 1391.9507,717.842736 1392.39984,717.952954 C1406.78121,721.482078 1418.22505,724.404666 1429.78663,727.550751 C1459.80702,735.719763 1487.32389,744.58219 1515.66511,755.601779 C1548.58521,768.401724 1579.04788,755.997187 1607.55364,721.934422 C1631.07472,693.82807 1652.4584,652.171651 1673.08825,598.202954 C1680.56255,578.649835 1687.71984,558.084186 1695.30765,534.771777 C1698.20625,525.866235 1701.03925,516.965936 1704.50143,505.940097 C1704.8445,504.847537 1710.86415,485.614659 1712.45815,480.570353 C1726.11766,437.344247 1722.9578,391.202075 1705.15996,336.342224 C1697.73227,313.447185 1687.85037,289.136228 1674.47238,260.032223 C1669.08693,248.316094 1663.25214,236.055635 1655.74442,220.592379 C1652.43949,213.785376 1639.27608,186.851249 1636.04819,180.205998 C1633.65236,175.273691 1631.45829,170.734703 1629.35918,166.364782 C1602.54272,110.538238 1568.30408,89.1821315 1523.71579,98.5291674 C1482.70531,107.126186 1432.58416,141.358187 1365.51087,204.232845 C1338.23774,229.798733 1314.61125,249.303345 1289.57182,267.807923 C1285.11537,271.101316 1280.71429,274.29331 1275.51255,278.019189 C1273.38975,279.539695 1265.1238,285.434045 1263.12796,286.864994 C1253.77678,293.569492 1248.01398,297.903848 1242.79303,302.273272 C1218.13683,322.908064 1208.32798,343.994025 1198.57094,400.247722 Z" opacity=".02" transform="rotate(-43.2 1457.355 428.464)"/>
    <path d="M1171.39614,400.489821 C1161.85335,455.616738 1167.11374,518.740025 1184.3973,574.49434 C1201.02226,628.1241 1226.93859,668.559666 1254.10094,682.047181 C1273.66372,691.761117 1294.84491,698.594105 1329.52921,707.283524 C1336.62456,709.061115 1362.78558,715.436433 1363.23012,715.545734 C1377.46363,719.04546 1388.78981,721.943704 1400.23253,725.063583 C1429.94432,733.164558 1457.17835,741.953177 1485.22824,752.880992 C1517.80847,765.57376 1547.95668,753.27307 1576.16868,719.494875 C1599.44772,691.622913 1620.61144,650.31373 1641.02909,596.79487 C1648.42652,577.404694 1655.51021,557.01042 1663.01997,533.89227 C1665.88877,525.060934 1668.69263,516.234796 1672.11921,505.300826 C1672.45876,504.217372 1678.4165,485.144735 1679.99412,480.142454 C1693.51306,437.276868 1690.38571,391.519467 1672.77098,337.117 C1665.41969,314.412791 1655.63943,290.304449 1642.39903,261.442991 C1637.06896,249.824493 1631.29417,237.666196 1623.86366,222.331787 C1620.59271,215.581501 1607.56466,188.871784 1604.36997,182.281896 C1601.99876,177.390682 1599.82725,172.889509 1597.74973,168.555995 C1571.20944,113.195468 1537.32401,92.0180088 1493.19567,101.286861 C1452.60756,109.81211 1403.0021,143.758687 1336.61885,206.109172 C1309.6261,231.462118 1286.24248,250.804283 1261.46045,269.154741 C1257.04981,272.420703 1252.69397,275.586108 1247.54571,279.280951 C1245.44474,280.788791 1237.26378,286.63403 1235.28848,288.053055 C1226.0335,294.701658 1220.33,298.99987 1215.16279,303.332839 C1190.76059,323.795317 1181.05278,344.705208 1171.39614,400.489821 Z" opacity=".159" transform="rotate(-50.4 1427.517 428.47)"/>
    <path d="M1144.22134,400.732048 C1134.77774,455.395563 1139.98345,517.988273 1157.08737,573.273935 C1173.53945,626.45264 1199.18624,666.548057 1226.06563,679.921882 C1245.42493,689.554093 1266.38589,696.329621 1300.70964,704.945989 C1307.73126,706.708644 1333.62047,713.030397 1334.06039,713.138783 C1348.14605,716.609111 1359.35458,719.483012 1370.67844,722.576688 C1400.08163,730.60963 1427.0328,739.324444 1454.79137,750.160491 C1487.03172,762.746084 1516.86548,750.549238 1544.78373,717.0556 C1567.82072,689.418018 1588.76447,648.456051 1608.96992,595.387004 C1616.29048,576.159762 1623.30057,555.936854 1630.7323,533.012954 C1633.57129,524.25582 1636.34602,515.503838 1639.737,504.661734 C1640.07301,503.587384 1645.96886,484.674981 1647.53009,479.714723 C1660.90845,437.209636 1657.81362,391.836985 1640.382,337.891877 C1633.1071,315.378489 1623.42849,291.472751 1610.32568,262.853827 C1605.05099,251.332953 1599.3362,239.276813 1591.9829,224.071245 C1588.74594,217.377673 1575.85325,190.892354 1572.69174,184.357827 C1570.34517,179.507703 1568.19622,175.044344 1566.14028,170.747234 C1539.87616,115.852702 1506.34394,94.8538847 1462.67555,104.044554 C1422.50982,112.498038 1373.42005,146.159204 1307.72683,207.985543 C1281.01446,233.125558 1257.8737,252.305283 1233.34908,270.501629 C1228.98426,273.740161 1224.67366,276.878981 1219.57888,280.542788 C1217.49973,282.037962 1209.40377,287.834094 1207.44899,289.241194 C1198.29022,295.833906 1192.64602,300.095975 1187.53255,304.392491 C1163.38435,324.682664 1153.77758,345.416496 1144.22134,400.732048 Z" opacity=".948" transform="rotate(-57.6 1397.678 428.477)"/>
    <path d="M1117.04653,400.97441 C1107.70213,455.174547 1112.85317,517.236711 1129.77744,572.053745 C1146.05664,624.78142 1171.4339,664.536706 1198.03032,677.796846 C1217.18614,687.347337 1237.92686,694.065406 1271.89007,702.608728 C1278.83797,704.356446 1304.45536,710.624639 1304.89067,710.732108 C1318.82847,714.173041 1329.91935,717.0226 1341.12435,720.090073 C1370.21895,728.054986 1396.88726,736.696 1424.3545,747.440284 C1456.25498,759.918704 1485.77428,747.8257 1513.39877,714.616607 C1536.19372,687.213391 1556.91751,646.598622 1576.91076,593.979364 C1584.15445,574.915048 1591.09092,554.863497 1598.44463,532.133836 C1601.25381,523.450899 1603.99941,514.77307 1607.35478,504.022826 C1607.68727,502.957581 1613.52122,484.205402 1615.06606,479.287165 C1628.30385,437.142556 1625.24152,392.154633 1607.99301,338.666857 C1600.79452,316.34428 1591.21754,292.641135 1578.25232,264.264732 C1573.03302,252.841478 1567.37824,240.88749 1560.10214,225.810754 C1556.89916,219.173894 1544.14182,192.91296 1541.01351,186.433792 C1538.69157,181.624757 1536.56518,177.199209 1534.53083,172.938502 C1508.54288,118.509941 1475.36387,97.6897589 1432.15544,106.802249 C1392.41208,115.183969 1343.83801,148.559738 1278.83482,209.861957 C1252.40282,234.789053 1229.50494,253.806349 1205.23771,271.848591 C1200.9187,275.059694 1196.65335,278.171929 1191.61205,281.804703 C1189.55473,283.287213 1181.54377,289.034238 1179.60951,290.429415 C1170.54694,296.966238 1164.96204,301.192166 1159.90232,305.452231 C1136.00811,325.570108 1126.50238,346.127891 1117.04653,400.97441 Z" opacity=".557" transform="rotate(-64.8 1367.84 428.484)"/>
    <path d="M1089.87173,401.216909 C1080.62651,454.953695 1085.72288,516.485344 1102.46751,570.833777 C1118.57383,623.110447 1143.68155,662.525622 1169.99501,675.672081 C1188.94736,685.140856 1209.46784,691.80147 1243.0705,700.271748 C1249.94467,702.004531 1275.29025,708.219166 1275.72095,708.325719 C1289.51089,711.737259 1300.48412,714.562477 1311.57027,717.60375 C1340.35626,725.500637 1366.74173,734.067855 1393.91764,744.72038 C1425.47823,757.09163 1454.68308,745.102465 1482.0138,712.177905 C1504.56672,685.009042 1525.07054,644.741451 1544.85159,592.571957 C1552.01841,573.670558 1558.88128,553.790354 1566.15696,531.254921 C1568.93633,522.646178 1571.65279,514.042498 1574.97257,503.384109 C1575.30152,502.327967 1581.07358,483.736005 1582.60202,478.859786 C1595.69924,437.075634 1592.66943,392.472415 1575.60403,339.441945 C1568.48194,317.310167 1559.0066,293.809604 1546.17897,265.675709 C1541.01505,254.350069 1535.42027,242.498227 1528.22137,227.550318 C1525.05238,220.970166 1512.4304,194.933606 1509.33528,188.509792 C1507.03798,183.741843 1504.93415,179.354104 1502.92138,175.129798 C1477.20959,121.167185 1444.3838,100.525632 1401.63533,109.559943 C1362.31434,117.869904 1314.25596,150.960291 1249.94281,211.738418 C1223.79118,236.452606 1201.13617,255.307481 1177.12635,273.195628 C1172.85315,276.379305 1168.63305,279.464955 1163.64522,283.066699 C1161.60973,284.536544 1153.68376,290.234466 1151.77003,291.61772 C1142.80367,298.098657 1137.27806,302.288447 1132.27209,306.512063 C1108.63188,326.457652 1099.22718,346.839397 1089.87173,401.216909 Z" opacity=".254" transform="rotate(-72 1338.002 428.491)"/>
    <path d="M1062.69693,401.459551 C1053.5509,454.733014 1058.5926,515.734179 1075.15758,569.61404 C1091.09102,621.43973 1115.92921,660.514813 1141.95971,673.547598 C1160.70857,682.93466 1181.00883,689.537821 1214.25094,697.93506 C1221.05138,699.652908 1246.12514,705.813988 1246.55124,705.919625 C1260.19332,709.301773 1271.0489,712.102652 1282.01619,715.117726 C1310.49358,722.946592 1336.59619,731.440018 1363.48078,742.000791 C1394.70149,754.264872 1423.59187,742.379543 1450.62884,709.739503 C1472.93971,682.80498 1493.22357,642.884547 1512.79242,591.164791 C1519.88237,572.426299 1526.67164,552.717433 1533.86928,530.376217 C1536.61885,521.841663 1539.30618,513.312127 1542.59035,502.745589 C1542.91578,501.698549 1548.62593,483.266794 1550.13799,478.432592 C1563.09464,437.008874 1560.09734,392.790336 1543.21505,340.217145 C1536.16936,318.276155 1526.79565,294.978161 1514.10561,267.08676 C1508.99707,255.858728 1503.4623,244.109026 1496.34061,229.289937 C1493.2056,222.76649 1480.71898,196.95429 1477.65704,190.585829 C1475.38438,185.858963 1473.30311,181.509032 1471.31192,177.321124 C1445.8763,123.824434 1413.40372,103.361502 1371.11522,112.317638 C1332.21661,120.555842 1284.67392,153.360863 1221.05081,213.614926 C1195.17955,238.116218 1172.76741,256.808682 1149.01499,274.542743 C1144.78761,277.698994 1140.61274,280.758063 1135.6784,284.328777 C1133.66473,285.785958 1125.82376,291.434781 1123.93056,292.806112 C1115.0604,299.231167 1109.59409,303.38482 1104.64186,307.571988 C1081.25564,327.3453 1071.95198,347.551018 1062.69693,401.459551 Z" opacity=".525" transform="rotate(-79.2 1308.163 428.499)"/>
    <path d="M1035.52213,401.70234 C1026.47529,454.512509 1031.46231,514.983223 1047.84765,568.394539 C1063.60822,619.769276 1088.17688,658.504289 1113.92441,671.423404 C1132.4698,680.728757 1152.54981,687.274469 1185.43138,695.598673 C1192.15809,697.301587 1216.96004,703.409115 1217.38152,703.513837 C1230.87575,706.866594 1241.61367,709.643136 1252.4621,712.632012 C1280.6309,720.392861 1306.45066,728.812499 1333.04393,739.281526 C1363.92474,751.438441 1392.50066,739.656946 1419.24387,707.301411 C1441.31271,680.601215 1461.3766,641.027918 1480.73325,589.757873 C1487.74634,571.182279 1494.462,551.64474 1501.58161,529.49773 C1504.30136,521.037361 1506.95956,512.581965 1510.20813,502.107271 C1510.53003,501.069334 1516.17829,482.797777 1517.67396,478.005588 C1530.49004,436.942281 1527.52525,393.1084 1510.82606,340.992459 C1503.85677,319.242245 1494.58471,296.14681 1482.03225,268.497888 C1476.9791,257.367459 1471.50433,245.719891 1464.45984,231.029613 C1461.35882,224.562868 1449.00755,198.975015 1445.97881,192.661903 C1443.73078,187.976118 1441.67207,183.663992 1439.70246,179.512481 C1414.54301,126.481688 1382.42364,106.197372 1340.59511,115.075334 C1302.11888,123.241784 1255.09189,155.761455 1192.15881,215.491483 C1166.56792,239.779892 1144.39866,258.309955 1120.90363,275.889939 C1116.72206,279.018766 1112.59245,282.051255 1107.71158,285.590941 C1105.71974,287.035459 1097.96377,292.635185 1096.09109,293.994594 C1087.31713,300.363769 1081.91013,304.481288 1077.01164,308.63201 C1053.87941,328.233055 1044.67679,348.262758 1035.52213,401.70234 Z" opacity=".284" transform="rotate(-86.4 1278.325 428.506)"/>
    <path d="M1008.34733,401.945281 C999.399677,454.292186 1004.33202,514.232482 1020.53773,567.175284 C1036.12542,618.099096 1060.42454,656.494059 1085.88912,669.29951 C1104.23102,678.523159 1124.0908,685.011424 1156.61182,693.262597 C1163.2648,694.950578 1187.79494,701.004558 1188.21181,701.108363 C1201.55818,704.431733 1212.17845,707.183938 1222.90803,710.146618 C1250.76823,717.839455 1276.30513,726.18531 1302.60708,736.562596 C1333.14799,748.612347 1361.40944,736.934682 1387.8589,704.86364 C1409.6857,678.397756 1429.52963,639.171575 1448.67408,588.351213 C1455.6103,569.938507 1462.25235,550.572284 1469.29393,528.619467 C1471.98388,520.233279 1474.61295,511.852019 1477.82591,501.469164 C1478.14428,500.440329 1483.73064,482.328959 1485.20992,477.578782 C1497.88543,436.875862 1494.95316,393.426612 1478.43708,341.767891 C1471.54419,320.208443 1462.37376,297.315553 1449.95889,269.909095 C1444.96112,258.876263 1439.54635,247.330823 1432.57907,232.769348 C1429.51204,226.359301 1417.29613,200.995783 1414.30057,194.738016 C1412.07718,190.09331 1410.04103,185.818986 1408.09301,181.70387 C1383.20972,129.138948 1351.44356,109.033239 1310.07501,117.83303 C1272.02115,125.92773 1225.50985,158.162068 1163.26681,217.36809 C1137.95629,241.44363 1116.02991,259.811301 1092.79228,277.237217 C1088.65653,280.338623 1084.57216,283.344533 1079.74477,286.853193 C1077.77475,288.28505 1070.10378,293.835681 1068.25163,295.183169 C1059.57387,301.496468 1054.22616,305.577854 1049.38142,309.692133 C1026.50318,329.12092 1017.40159,348.97462 1008.34733,401.945281 Z" opacity=".971" transform="rotate(-93.6 1248.487 428.514)"/>
    <path d="M981.172524,402.188379 C972.324065,454.07205 977.201739,513.481963 993.2278,565.956282 C1008.64262,616.429197 1032.67221,654.484133 1057.85383,667.175926 C1075.99225,676.317875 1095.6318,682.748696 1127.79226,690.926842 C1134.37151,692.599892 1158.62984,698.600326 1159.04211,698.703216 C1172.24061,701.997199 1182.74323,704.725069 1193.35395,707.661556 C1220.90556,715.286384 1246.15961,723.558462 1272.17023,733.844013 C1302.37125,745.786601 1330.31822,734.212765 1356.47392,702.426201 C1378.05869,676.194613 1397.68265,637.315526 1416.61491,586.944818 C1423.47426,568.694989 1430.04271,549.500073 1437.00625,527.741437 C1439.6664,519.429424 1442.26633,511.122295 1445.44369,500.831273 C1445.75854,499.81154 1451.283,481.860348 1452.74589,477.152179 C1465.28083,436.809622 1462.38108,393.744977 1446.04809,342.543447 C1439.2316,321.174751 1430.16281,298.484393 1417.88553,271.320384 C1412.94315,260.385143 1407.58838,248.941824 1400.6983,234.509145 C1397.66525,228.155792 1385.5847,203.016594 1382.62233,196.814168 C1380.42357,192.210539 1378.40999,187.974016 1376.48355,183.895291 C1351.87642,131.796212 1320.46348,111.869105 1279.55491,120.590727 C1241.92343,128.613679 1195.92782,160.562701 1134.37482,219.244749 C1109.34467,243.107434 1087.66116,261.312723 1064.68093,278.584582 C1060.59099,281.658568 1056.55187,284.6379 1051.77796,288.115537 C1049.82977,289.534732 1042.24379,295.036272 1040.41217,296.371841 C1031.83061,302.629266 1026.54221,306.674521 1021.75121,310.752359 C999.126955,330.0089 990.126396,349.686608 981.172524,402.188379 Z" opacity=".32" transform="rotate(-100.8 1218.648 428.522)"/>
    <path d="M953.997723,402.43164 C945.248452,453.852109 950.071453,512.731676 965.917874,564.737542 C981.159817,614.75959 1004.91988,652.474521 1029.81855,665.052662 C1047.75349,674.112916 1067.17279,680.486297 1098.97271,688.59142 C1105.47823,690.249539 1129.46475,696.196432 1129.8724,696.298406 C1142.92305,699.563004 1153.30802,702.266542 1163.79988,705.176836 C1191.04289,712.73366 1216.01409,720.931965 1241.73339,731.125788 C1271.5945,742.961217 1299.227,731.491206 1325.08894,699.989105 C1346.43168,673.991799 1365.83568,635.459781 1384.55573,585.538698 C1391.33822,567.451736 1397.83306,548.428114 1404.71858,526.863647 C1407.34891,518.625805 1409.91971,510.392802 1413.06147,500.193608 C1413.37279,499.182974 1418.83535,481.39195 1420.28185,476.725788 C1432.67623,436.743567 1429.80899,394.0635 1413.6591,343.319129 C1406.91901,322.141173 1397.95186,299.653334 1385.81217,272.731758 C1380.92517,261.894101 1375.6304,250.552897 1368.81753,236.249005 C1365.81847,229.952343 1353.87327,205.03745 1350.94409,198.890363 C1348.76997,194.327807 1346.77894,190.129082 1344.87409,186.086747 C1320.54313,134.453483 1289.48339,114.704969 1249.03481,123.348424 C1211.82571,131.299633 1166.3458,162.963356 1105.48283,221.121463 C1080.73306,244.771305 1059.29242,262.814224 1036.56959,279.932036 C1032.52546,282.978603 1028.53158,285.93136 1023.81116,289.377975 C1021.88479,290.78451 1014.38381,296.236962 1012.57271,297.560611 C1004.08736,303.762167 998.858252,307.771294 994.120999,311.812693 C971.75073,330.896998 962.851202,350.398728 953.997723,402.43164 Z" opacity=".982" transform="rotate(-108 1188.81 428.53)"/>
    <path d="M926.822922,402.67507 C918.172839,453.63237 922.941167,511.981626 938.607949,563.519074 C953.677019,613.090285 977.167559,650.465235 1001.78327,662.929731 C1019.51472,671.908293 1038.71379,678.224238 1070.15316,686.256343 C1076.58495,687.899532 1100.29966,693.792886 1100.7027,693.893944 C1113.60549,697.129161 1123.87281,699.808367 1134.24581,702.69247 C1161.18022,710.181296 1185.86857,718.305833 1211.29655,728.407934 C1240.81775,740.136206 1268.13578,728.770017 1293.70396,697.552364 C1314.80466,671.789323 1333.9887,633.604351 1352.49656,584.132863 C1359.20218,566.208756 1365.62341,547.356417 1372.4309,525.986106 C1375.03142,517.82243 1377.57309,509.663548 1380.67925,499.556174 C1380.98704,498.554641 1386.3877,480.923773 1387.81781,476.299614 C1400.07163,436.677704 1397.2369,394.382187 1381.27011,344.094942 C1374.60642,323.107713 1365.7409,300.82238 1353.7388,274.143219 C1348.90719,263.40314 1343.67242,252.164044 1336.93676,237.988931 C1333.97168,231.748956 1322.16184,207.058352 1319.26585,200.9666 C1317.11636,196.445115 1315.14789,192.284185 1313.26462,188.278238 C1289.20982,137.110759 1258.5033,117.54083 1218.51471,126.106122 C1181.728,133.985592 1136.76378,165.364033 1076.59084,222.998233 C1052.12145,246.435247 1030.92368,264.315807 1008.45825,281.279582 C1004.45994,284.298733 1000.51131,287.224916 995.844356,290.640511 C993.939813,292.034387 986.523833,297.437754 984.73326,298.749485 C976.344112,304.895175 971.174302,308.868176 966.490794,312.873138 C944.374507,331.785218 935.576008,351.110983 926.822922,402.67507 Z" opacity=".112" transform="rotate(-115.2 1158.971 428.538)"/>
    <path d="M899.648122,402.918674 C891.097225,453.412838 895.810881,511.231824 911.298025,562.300887 C926.194223,611.421292 949.415238,648.456287 973.747989,660.807142 C991.275964,669.704019 1010.2548,675.96253 1041.33362,683.921622 C1047.69168,685.549882 1071.13457,691.389702 1071.533,691.489845 C1084.28793,694.69568 1094.4376,697.350557 1104.69175,700.208472 C1131.31756,707.629303 1155.72306,715.680079 1180.85971,725.690464 C1210.041,737.311582 1237.04455,726.049212 1262.31898,695.11599 C1283.17764,669.587198 1302.14172,631.749248 1320.43738,582.727322 C1327.06613,564.966059 1333.41376,546.284991 1340.14322,525.108822 C1342.71394,517.019306 1345.22647,508.93454 1348.29703,498.918981 C1348.60129,497.926547 1353.94006,480.455825 1355.35377,475.873666 C1367.46703,436.612039 1364.66481,394.701043 1348.88112,344.870892 C1342.29383,324.074375 1333.52995,301.991533 1321.66544,275.554772 C1316.8892,264.912263 1311.71444,253.775268 1305.05599,239.728924 C1302.12489,233.545633 1290.4504,209.079303 1287.58761,203.042882 C1285.46276,198.562465 1283.51685,194.439328 1281.65516,190.469765 C1257.87652,139.768042 1227.52321,120.37669 1187.99462,128.86382 C1151.63029,136.671554 1107.18176,167.764734 1047.69886,224.87506 C1023.50984,248.099262 1002.55495,265.817474 980.346919,282.627224 C976.394418,285.618959 972.491032,288.518572 967.877561,291.903149 C965.994843,293.284366 958.66386,298.638652 956.893814,299.938465 C948.600868,306.028293 943.490358,309.96517 938.860593,313.933698 C916.998287,332.673566 908.300816,351.823379 899.648122,402.918674 Z" opacity=".038" transform="rotate(-122.4 1129.133 428.546)"/>
    <path d="M872.473321,403.162458 C864.021612,453.193522 868.680595,510.482277 883.988102,561.08299 C898.711428,609.752624 921.662921,646.447687 945.712718,658.68491 C963.03721,667.500105 981.795804,673.701187 1012.51407,681.58727 C1018.7984,683.200602 1041.96948,688.986892 1042.3633,689.086119 C1054.97038,692.262576 1065.0024,694.893125 1075.13769,697.724853 C1101.4549,705.077696 1125.57755,713.054715 1150.42288,722.973392 C1179.26425,734.487357 1205.95331,723.328803 1230.93399,692.679997 C1251.55062,667.385437 1270.29474,629.894483 1288.37821,581.322086 C1294.93009,563.723655 1301.20412,545.213846 1307.85554,524.231804 C1310.39645,516.216444 1312.87985,508.205788 1315.91481,498.282037 C1316.21554,497.298702 1321.49241,479.988114 1322.88973,475.447952 C1334.86243,436.54658 1332.09272,395.020075 1316.49213,345.646982 C1309.98124,325.041165 1301.319,303.160798 1289.59207,276.966419 C1284.87122,266.421474 1279.75646,255.386572 1273.17521,241.468988 C1270.2781,235.342375 1258.73897,211.100305 1255.90937,205.11921 C1253.80915,200.679858 1251.8858,196.594511 1250.04569,192.661331 C1226.54321,142.425331 1196.54312,123.212548 1157.47453,131.621519 C1121.53259,139.357522 1077.59975,170.165459 1018.80688,226.751948 C994.898235,249.763353 974.186216,267.319229 952.23559,283.974964 C948.328903,286.939287 944.470762,289.812329 939.91077,293.165892 C938.049877,294.534451 930.803892,299.839659 929.054372,301.127555 C920.85763,307.161525 915.806418,311.062281 911.230398,314.994377 C889.622069,333.562044 881.025624,352.53592 872.473321,403.162458 Z" opacity=".776" transform="rotate(-129.6 1099.295 428.555)"/>
    <path d="M845.298521,403.40643 C836.945998,452.97443 841.550309,509.732995 856.67818,559.865395 C871.228635,608.08429 893.910608,644.439448 917.677452,656.563045 C934.79846,665.296565 953.336816,671.440221 983.694533,679.253301 C989.905136,680.851706 1012.8044,686.584469 1013.19361,686.68278 C1025.65283,689.829862 1035.5672,692.436085 1045.58363,695.241629 C1071.59225,702.526488 1095.43205,710.429756 1119.98605,720.256732 C1148.4875,731.663548 1174.86207,720.608806 1199.549,690.244398 C1219.9236,665.184052 1238.44776,628.040067 1256.31903,579.917166 C1262.79404,562.481555 1268.99447,544.142991 1275.56786,523.355062 C1278.07896,515.413852 1280.53323,507.477301 1283.53258,497.645351 C1283.82978,496.671114 1289.04476,479.520648 1290.42569,475.022481 C1302.25783,436.481334 1299.52063,395.339289 1284.10314,346.423218 C1277.66865,326.008085 1269.10804,304.330179 1257.5187,278.378163 C1252.85323,267.930775 1247.79848,256.997958 1241.29443,243.209125 C1238.4313,237.139187 1227.02753,213.121358 1224.23112,207.195586 C1222.15553,202.797296 1220.25475,198.749736 1218.43622,194.852935 C1195.2099,145.082626 1165.56303,126.048403 1126.95444,134.379219 C1091.43489,142.043494 1048.01774,172.56621 989.914911,228.628898 C966.286636,251.427522 945.817492,268.821074 924.124267,285.322806 C920.263393,288.259719 916.450498,291.106194 911.943985,294.428743 C910.104917,295.784646 902.94393,301.040779 901.214935,302.31676 C893.114396,308.294875 888.122482,312.159513 883.600207,316.055179 C862.245853,334.450658 853.750433,353.248612 845.298521,403.40643 Z" opacity=".324" transform="rotate(-136.8 1069.456 428.564)"/>
    <path d="M818.123722,403.650595 C809.870384,452.755569 814.420023,508.983988 829.368259,558.648112 C843.745844,606.416304 866.158299,642.431585 889.642191,654.441563 C906.559716,663.093412 924.877831,669.179646 954.874997,676.919728 C961.01187,678.503207 983.639319,684.182447 984.023923,684.279844 C996.335283,687.397552 1006.132,689.979451 1016.02958,692.758812 C1041.7296,699.975693 1065.28655,707.805217 1089.54923,717.540499 C1117.71075,728.840169 1143.77083,717.889236 1168.164,687.809208 C1188.29657,662.983057 1206.60078,626.186014 1224.25985,578.512573 C1230.658,561.23977 1236.78481,543.072438 1243.28017,522.478607 C1245.76147,514.61154 1248.18661,506.749088 1251.15036,497.008933 C1251.44403,496.043793 1256.59711,479.053437 1257.96165,474.59726 C1269.65323,436.416309 1266.94854,395.658692 1251.71415,347.199606 C1245.35606,326.975142 1236.89708,305.499681 1225.44533,279.790008 C1220.83525,269.440169 1215.84049,258.60943 1209.41365,244.949337 C1206.58451,238.93607 1195.31609,215.142465 1192.55287,209.272012 C1190.50192,204.91478 1188.62369,200.905005 1186.82675,197.04458 C1163.87659,147.739929 1134.58293,128.884257 1096.43435,137.136919 C1061.3372,144.729471 1018.43574,174.966986 961.022943,230.505912 C937.675043,253.091772 917.448773,270.323014 896.012949,286.670755 C892.197888,289.580259 888.430239,292.400168 883.977205,295.691708 C882.159962,297.034955 875.083972,302.242018 873.375504,303.506083 C865.371168,309.428348 860.438552,313.25687 855.970021,317.116109 C834.86964,335.339414 826.475243,353.96146 818.123722,403.650595 Z" opacity=".931" transform="rotate(-144 1039.618 428.573)"/>
    <path d="M790.948922,403.894962 C782.79477,452.536949 787.289737,508.235265 802.058338,557.431153 C816.263055,604.748678 838.405994,640.42411 861.606936,652.320477 C878.320975,660.890661 896.418851,666.919477 926.055464,674.586565 C932.118607,676.15512 954.474243,681.780842 954.854237,681.877324 C967.017741,684.965661 976.696805,687.523238 986.475527,690.276419 C1011.86696,697.425328 1035.14105,705.181113 1059.11242,714.824708 C1086.934,726.017235 1112.67959,715.170107 1136.779,685.374441 C1156.66955,660.782467 1174.75379,624.332338 1192.20067,577.10832 C1198.52195,559.99831 1204.57516,542.002197 1210.99249,521.602447 C1213.44398,513.809519 1215.83998,506.02116 1218.76813,496.372791 C1219.05828,495.416748 1224.14945,478.586489 1225.49761,474.172299 C1237.04863,436.351513 1234.37645,395.97829 1219.32516,347.976151 C1213.04346,327.94234 1204.68612,306.669307 1193.37196,281.201959 C1188.81726,270.94966 1183.88251,260.220991 1177.53287,246.689628 C1174.73771,240.733026 1163.60465,217.163628 1160.87462,211.348488 C1158.84831,207.032312 1156.99264,203.060318 1155.21728,199.236268 C1132.54327,150.397238 1103.60283,131.720108 1065.91427,139.89462 C1031.23951,147.415452 988.853738,177.367789 932.13098,232.382994 C909.063454,254.756106 889.080059,271.82505 867.901636,288.018813 C864.132389,290.900911 860.409985,293.694257 856.01043,296.954789 C854.215012,298.285381 847.22402,303.443378 845.536078,304.695529 C837.627944,310.561949 832.754628,314.354357 828.339839,318.177172 C807.49343,336.228315 799.200053,354.67447 790.948922,403.894962 Z" opacity=".673" transform="rotate(-151.2 1009.78 428.582)"/>
    <path d="M763.774123,404.139537 C755.719155,452.318577 760.159451,507.486837 774.748418,556.21453 C788.780268,603.081425 810.653693,638.417038 833.571686,650.199801 C850.08224,658.688326 867.959875,664.659729 897.235935,672.25383 C903.225349,673.807461 925.309171,679.37967 925.684556,679.475236 C937.700202,682.534204 947.261616,685.067462 956.921481,687.794464 C982.004317,694.875407 1004.99556,702.55746 1028.6756,712.109378 C1056.15725,723.194763 1081.58834,712.451437 1105.39399,682.940113 C1125.04252,658.582296 1142.9068,622.479051 1160.14149,575.704419 C1166.3859,558.757189 1172.36551,540.932279 1178.70481,520.726596 C1181.12649,513.007799 1183.49336,505.293528 1186.38591,495.736937 C1186.67252,494.78999 1191.7018,478.119814 1193.03357,473.747609 C1204.44403,436.286954 1201.80436,396.298091 1186.93617,348.752858 C1180.73087,328.909684 1172.47516,307.839062 1161.29858,282.614018 C1156.79926,272.459252 1151.92452,261.832643 1145.65208,248.43 C1142.89091,242.53006 1131.89321,219.184849 1129.19637,213.425019 C1127.19469,209.149895 1125.36158,205.215679 1123.60781,201.427999 C1101.20995,153.054555 1072.62272,134.555956 1035.39419,142.652322 C1001.14182,150.10144 959.271744,179.76862 903.239022,234.260144 C880.451871,256.420528 860.71135,273.327188 839.790328,289.366986 C836.066895,292.22168 832.389737,294.988465 828.04366,298.217991 C826.270068,299.53593 819.364074,304.644864 817.696658,305.885102 C809.884727,311.695681 805.070708,315.451979 800.709664,319.238373 C780.117223,337.117368 771.924865,355.387648 763.774123,404.139537 Z" opacity=".874" transform="rotate(-158.4 979.941 428.592)"/>
    <path d="M736.599325,404.384329 C728.64354,452.100464 733.029165,506.738716 747.4385,554.998255 C761.297482,601.414561 782.901397,636.410384 805.536441,648.079552 C821.84351,656.486424 839.500904,662.400417 868.41641,669.921537 C874.332094,671.460246 896.144103,676.978945 896.514878,677.073596 C908.382667,680.103199 917.82643,682.612139 927.367439,685.312965 C952.14168,692.325948 974.850079,699.934276 998.238797,709.394524 C1025.38049,720.372772 1050.49708,709.733243 1074.00899,680.506242 C1093.41548,656.382561 1111.05981,620.62617 1128.0823,574.300883 C1134.24985,557.516419 1140.15585,539.862698 1146.41712,519.851064 C1148.809,512.206393 1151.14673,504.566201 1154.00368,495.101382 C1154.28677,494.16353 1159.25415,477.653424 1160.56952,473.323199 C1171.83943,436.222641 1169.23228,396.618103 1154.54717,349.529734 C1148.41827,329.877181 1140.2642,309.008952 1129.22521,284.02619 C1124.78127,273.968948 1119.96653,263.444392 1113.7713,250.170457 C1111.04411,244.327173 1100.18177,221.20613 1097.51811,215.501604 C1095.54107,211.267529 1093.73052,207.371088 1091.99833,203.619776 C1069.87662,155.71188 1041.64262,137.391802 1004.87412,145.410024 C971.044145,152.787432 929.689754,182.16948 874.347069,236.137367 C851.840293,258.08504 832.342646,274.82943 811.679026,290.715277 C808.001406,293.54257 804.369494,296.282796 800.076897,299.48132 C798.32513,300.786606 791.504133,305.846482 789.857243,307.074807 C782.141514,312.82955 777.386794,316.54974 773.079493,320.299716 C752.741018,338.006579 744.649678,356.101001 736.599325,404.384329 Z" opacity=".187" transform="rotate(-165.6 950.103 428.601)"/>
    <path d="M709.424526,404.629345 C701.567925,451.88262 705.898879,505.990913 720.128582,553.782343 C733.814699,599.748099 755.149104,634.404165 777.501203,645.959745 C793.604786,654.28497 811.041937,660.141559 839.596889,667.589703 C845.438843,669.113492 866.979039,674.578686 867.345204,674.672423 C879.065136,677.672661 888.391248,680.157286 897.813401,682.831939 C922.279049,689.776968 944.704598,697.311578 967.801996,706.680165 C994.603737,717.551278 1019.40582,707.015543 1042.62397,678.072844 C1061.78845,654.183278 1079.21282,618.773708 1096.02312,572.897727 C1102.1138,556.276013 1107.9462,538.793466 1114.12943,518.975863 C1116.4915,511.40531 1118.80011,503.839193 1121.62145,494.466136 C1121.90101,493.537378 1126.80649,477.187328 1128.10548,472.899079 C1139.23483,436.158585 1136.66019,396.938333 1122.15817,350.306786 C1116.10567,330.844835 1108.05324,310.178981 1097.15183,285.43848 C1092.76328,275.478754 1088.00853,265.05624 1081.89051,251.911001 C1079.19731,246.124368 1068.47032,223.227473 1065.83986,217.578248 C1063.88745,213.385217 1062.09946,209.526548 1060.38886,205.8116 C1038.5433,158.369213 1010.66251,140.227646 974.354046,148.167727 C940.946473,155.473431 900.10777,184.57037 845.455122,238.014664 C823.22872,259.749646 803.973949,276.331782 783.567731,292.063691 C779.935924,294.863585 776.349258,297.577255 772.110139,300.744779 C770.380197,302.037413 763.644198,307.048236 762.017834,308.26465 C754.398308,313.963561 749.702886,317.647647 745.449329,321.361208 C725.364816,338.895953 717.374492,356.814535 709.424526,404.629345 Z" opacity=".8" transform="rotate(-172.8 920.264 428.611)"/>
    <path d="M682.249728,404.874595 C674.492309,451.665055 678.768593,505.24344 692.818665,552.566806 C706.331918,598.082055 727.396817,632.398397 749.46597,643.840399 C765.366067,652.083983 782.582975,657.883172 810.777372,665.258347 C816.545596,666.767216 837.813978,672.178911 838.175534,672.271733 C849.747609,675.242611 858.956071,677.702923 868.259368,680.351405 C892.416422,687.228487 914.559123,694.689385 937.365201,703.96632 C963.826981,714.730303 988.314557,704.298357 1011.23896,675.639938 C1030.16141,651.984465 1047.36583,616.921683 1063.96393,571.494964 C1069.97775,555.035987 1075.73654,537.724597 1081.84175,518.101007 C1084.17401,510.604566 1086.45348,503.112515 1089.23922,493.831213 C1089.51525,492.911548 1094.35884,476.721538 1095.64143,472.475262 C1106.63023,436.094794 1104.0881,397.258791 1089.76918,351.08402 C1083.79307,331.812654 1075.84227,311.349155 1065.07845,286.850892 C1060.74528,276.988671 1056.05054,266.668191 1050.00972,253.651637 C1047.3505,247.92165 1036.75887,225.248882 1034.1616,219.654951 C1032.23382,215.502961 1030.4684,211.68206 1028.77938,208.003473 C1007.20997,161.026554 979.682394,143.063487 943.833978,150.925431 C910.848806,158.159435 870.525791,186.971292 816.563179,239.892039 C794.617153,261.41435 775.605257,277.834246 755.456441,293.412233 C751.870448,296.184731 748.329027,298.871846 744.143388,302.008373 C742.435271,303.288358 735.784269,308.250131 734.178431,309.454636 C726.655108,315.09772 722.018984,318.745705 717.81917,322.422853 C697.988618,339.785497 690.099306,357.528257 682.249728,404.874595 Z" opacity=".339" transform="rotate(180 890.426 428.621)"/>
    <path d="M655.07493,405.120088 C647.416693,451.447779 651.638306,504.496311 665.50875,551.35166 C678.849138,596.416447 699.644534,630.393098 721.430744,641.72153 C737.127353,649.883481 754.124018,655.625274 781.957859,662.927487 C787.652354,664.421438 808.648922,669.779639 809.005869,669.871546 C820.430087,672.813066 829.520898,675.249067 838.705339,677.871382 C862.5538,684.680523 884.413653,692.067718 906.928411,701.25301 C933.050225,711.909865 957.223288,701.581704 979.853934,673.207543 C998.534364,649.78614 1015.51883,615.070113 1031.90475,570.092611 C1037.8417,553.796354 1043.52688,536.656104 1049.55406,517.226508 C1051.85651,509.804172 1054.10685,502.386181 1056.85699,493.196623 C1057.12949,492.286051 1061.91118,476.256066 1063.17739,472.051759 C1074.02564,436.031279 1071.51601,397.579484 1057.38018,351.861444 C1051.48047,332.780643 1043.6313,312.519479 1033.00507,288.26343 C1028.72728,278.498707 1024.09254,268.280249 1018.12893,255.392367 C1015.5037,249.71902 1005.04742,227.270358 1002.48334,221.731716 C1000.5802,217.620764 998.837331,213.837627 997.169894,210.195397 C975.87663,163.683904 948.702278,145.899325 913.313914,153.683136 C880.751146,160.845446 840.943818,189.372246 787.671243,241.769495 C766.005592,263.079156 747.236572,279.336829 727.345157,294.760907 C723.804978,297.506012 720.308803,300.166576 716.176642,303.272109 C714.490351,304.539445 707.924347,309.452174 706.339035,310.644769 C698.911914,316.232032 694.335088,319.84392 690.189017,323.484659 C670.612422,340.675218 662.824122,358.242174 655.07493,405.120088 Z" opacity=".449" transform="rotate(172.8 860.588 428.632)"/>
    <path d="M627.900133,405.365834 C620.341077,451.230805 624.50802,503.749539 638.198835,550.13692 C651.366361,594.75129 671.892256,628.388286 693.395524,639.603159 C708.888646,647.683483 725.665066,653.367886 753.138351,660.597142 C758.759116,662.076177 779.483871,667.380889 779.836207,667.471881 C791.112569,670.384047 800.08573,672.79574 809.151316,675.391889 C832.691184,682.133098 854.268189,689.446597 876.491627,698.540256 C902.273468,709.089986 926.132013,698.865606 948.468908,670.77568 C966.907318,647.588322 983.671832,613.219013 999.845558,568.690684 C1005.70564,552.55713 1011.31722,535.588003 1017.26637,516.352382 C1019.53901,509.004142 1021.76022,501.660204 1024.47476,492.562382 C1024.74373,491.660901 1029.46352,475.790925 1030.71334,471.628583 C1041.42104,435.968051 1038.94393,397.900424 1024.99118,352.639064 C1019.16787,333.748809 1011.42033,313.68996 1000.93168,289.6761 C996.709278,280.008864 992.134541,269.892419 986.248131,257.133197 C983.656886,251.516484 973.335966,229.291905 970.805077,223.808547 C968.926571,219.738627 967.206263,215.993251 965.56041,212.387375 C944.54329,166.341263 917.722158,148.73516 882.793853,156.440841 C850.653491,163.531462 811.36185,191.773234 758.779312,243.647035 C737.394037,264.744067 718.867892,280.839533 699.23388,296.10972 C695.739514,298.827433 692.288585,301.461449 688.209904,304.535992 C686.545437,305.79068 680.064431,310.654369 678.499645,311.835057 C671.168726,317.366504 666.651198,320.942297 662.55887,324.546631 C643.236229,341.565122 635.548939,358.956296 627.900133,405.365834 Z" opacity=".084" transform="rotate(165.6 830.75 428.643)"/>
    <path d="M600.725336,405.611842 C593.265461,451.014145 597.377734,503.003139 610.888921,548.922603 C623.883586,593.086603 644.139983,626.383982 665.360312,637.485304 C680.649945,645.484009 697.20612,651.111028 724.318848,658.267335 C729.865883,659.731455 750.318824,664.982683 750.666551,665.072761 C761.795056,667.955576 770.650567,670.342963 779.597297,672.912949 C802.828573,679.586232 824.12273,686.826044 846.054849,695.82808 C871.49671,706.27069 895.040733,696.150085 917.083876,668.34437 C935.280269,645.391033 951.824831,611.368405 967.786367,567.2892 C973.569584,551.318331 979.107564,534.52031 984.978679,515.478642 C987.221517,508.204492 989.413593,500.934598 992.092526,491.928502 C992.357974,491.036112 997.015863,475.326128 998.249289,471.205746 C1008.81645,435.905123 1006.37184,398.221618 992.602181,353.41689 C986.855267,334.717161 979.209363,314.860605 968.858297,291.088908 C964.691274,281.519148 960.17654,271.504706 954.367334,258.874128 C951.810074,253.314044 941.624511,231.313524 939.126811,225.885444 C937.272941,221.856553 935.575193,218.148934 933.950924,214.579408 C913.209947,168.998632 886.742035,151.570993 852.273797,159.198548 C820.555844,166.217486 781.779888,194.174257 729.887387,245.524663 C708.782489,266.409088 690.499219,282.342365 671.12261,297.458676 C667.674058,300.149002 664.268375,302.756472 660.243172,305.800028 C658.600531,307.042069 652.204522,311.856724 650.660262,313.025506 C643.425545,318.501142 638.967315,322.040845 634.928729,325.608777 C615.86004,342.455218 608.273757,359.670628 600.725336,405.611842 Z" opacity=".741" transform="rotate(158.4 800.911 428.654)"/>
    <path d="M573.550539,405.858124 C566.189844,450.797811 570.247448,502.257125 583.579009,547.708725 C596.400814,591.422406 616.387715,624.380206 637.325106,635.367988 C652.41125,643.285081 668.74718,648.85472 695.499349,655.938086 C700.972654,657.387293 721.153782,662.585043 721.496899,662.674207 C732.477548,665.527673 741.215409,667.890758 750.043284,670.434585 C772.965968,677.03995 793.977278,684.206082 815.618078,693.116507 C840.71995,703.451999 863.949447,693.435165 885.69884,665.913636 C903.653217,643.194293 919.977828,609.518308 935.727175,565.888177 C941.433527,550.079976 946.897903,533.453041 952.690987,514.605306 C954.904017,507.405236 957.066962,500.209378 959.710292,491.294999 C959.972212,490.411698 964.568203,474.861689 965.785239,470.783262 C976.21185,435.842505 973.799754,398.543079 960.213179,354.19493 C954.542661,335.685704 946.998391,316.031419 936.784909,292.501859 C932.673268,283.029564 928.218536,273.117113 922.486535,260.615167 C919.96326,255.111706 909.913053,233.335221 907.448544,227.962412 C905.619308,223.974545 903.944121,220.304678 902.341435,216.771499 C881.876599,171.65601 855.761908,154.406822 821.753745,161.956255 C790.458203,168.903516 752.197933,196.575317 700.995468,247.402381 C680.170946,268.074224 662.130553,283.845329 643.011346,298.807782 C639.608608,301.470723 636.248171,304.05165 632.276447,307.064222 C630.655631,308.293619 624.34462,313.059245 622.820886,314.216121 C615.682371,319.635953 611.283439,323.139569 607.298596,326.671103 C588.483854,343.345512 580.998576,360.385182 573.550539,405.858124 Z" opacity=".017" transform="rotate(151.2 771.073 428.665)"/>
    <path d="M546.375743,406.104691 C539.114227,450.581817 543.117162,501.511514 556.269097,546.495306 C568.918044,589.758719 588.635453,622.37698 609.289907,633.251233 C624.172562,641.086722 640.288245,646.598988 666.679856,653.60942 C672.079431,655.043714 691.988744,660.187993 692.327253,660.276243 C703.160045,663.100364 711.780256,665.439149 720.489275,667.95682 C743.103368,674.494275 763.831832,681.586737 785.181314,690.40556 C809.94319,700.633939 832.858155,690.720871 854.313799,663.483501 C872.026161,640.998126 888.130822,607.668743 903.667982,564.487634 C909.297467,548.842083 914.68824,532.386214 920.403294,513.732389 C922.586517,506.606392 924.720329,499.484562 927.328057,490.661888 C927.586449,489.787676 932.120542,474.397623 933.321188,470.361147 C943.607256,435.780211 941.227668,398.864817 927.824177,354.973192 C922.230054,336.654448 914.787416,317.20241 904.711519,293.914958 C900.65526,284.540118 896.26053,274.729647 890.605733,262.356317 C888.116443,256.909472 878.201592,235.356996 875.770274,230.039453 C873.965674,226.092606 872.313046,222.460487 870.731944,218.963649 C850.543247,174.313399 824.781777,157.242649 791.233697,164.713963 C760.360569,171.589553 722.615983,198.976416 672.103556,249.280194 C651.559411,269.739479 633.761894,285.348431 614.90009,300.157044 C611.543165,302.792603 608.227974,305.346991 604.309729,308.328582 C602.710739,309.545335 596.484725,314.261938 594.981517,315.40691 C587.939204,320.770944 583.599569,324.238477 579.668469,327.733617 C561.107672,344.236014 553.723396,361.099965 546.375743,406.104691 Z" opacity=".483" transform="rotate(144 741.234 428.677)"/>
    <path d="M519.200947,406.351555 C512.038609,450.366177 515.986876,500.766323 528.959187,545.282364 C541.435276,588.095563 560.883196,620.374327 581.254717,631.135062 C595.933881,638.888955 611.829317,644.343853 637.860368,651.281359 C643.186212,652.700744 662.823712,657.791558 663.157611,657.878893 C673.842547,660.673674 682.345109,662.988162 690.935273,665.479679 C713.240775,671.949233 733.686392,678.968034 754.744556,687.695267 C779.166429,697.816537 801.766858,688.007229 822.928752,661.05399 C840.399102,638.802555 856.283814,605.819732 871.608786,563.087592 C877.161407,547.60467 882.478575,531.319847 888.1156,512.859909 C890.269015,505.807976 892.373695,498.760165 894.945821,490.029186 C895.200685,489.164061 899.67288,473.933945 900.857135,469.939416 C911.002662,435.718255 908.655582,399.186843 895.435173,355.751685 C889.917446,337.6234 882.57644,318.373585 872.638126,295.328213 C868.63725,286.050816 864.302521,276.342312 858.724928,264.097583 C856.269623,258.707347 846.490129,237.378854 844.092002,232.116571 C842.312036,228.210738 840.681969,224.616363 839.122451,221.155863 C819.20989,176.970799 793.801642,160.078471 760.713654,167.471672 C730.262942,174.275598 693.03404,201.377554 643.21165,251.158106 C622.947882,271.404858 605.393242,286.851677 586.788841,301.506468 C583.47773,304.114649 580.207785,306.6425 576.343019,309.593114 C574.765854,310.797226 568.624838,315.464811 567.142156,316.597881 C560.196044,321.906123 555.915707,325.337577 552.038349,328.796327 C533.731493,345.126732 526.448218,361.814987 519.200947,406.351555 Z" opacity=".274" transform="rotate(136.8 711.396 428.689)"/>
    <path d="M492.026151,406.598728 C484.962992,450.150907 488.85659,500.021569 501.649278,544.06992 C513.952511,586.432961 533.130945,618.372271 553.219534,629.0195 C567.695207,636.691806 583.370394,642.089343 609.040885,648.953931 C614.292999,650.358408 633.658685,655.395763 633.987975,655.482185 C644.525055,658.247628 652.909967,660.537822 661.381276,663.003189 C683.378187,669.404851 703.54096,676.35 724.307806,684.985655 C748.389666,694.99982 770.675554,685.294267 791.5437,658.625131 C808.772039,636.607606 824.436804,603.9713 839.549589,561.688071 C845.025345,546.367759 850.268909,530.25396 855.827904,511.987885 C857.951513,505.010006 860.02706,498.036205 862.563584,489.396909 C862.81492,488.540871 867.225216,473.470673 868.393082,469.518084 C878.398069,435.656651 876.083496,399.509171 863.046168,356.530421 C857.604836,338.59257 850.365462,319.544952 840.564731,296.741629 C836.619237,287.561664 832.34451,277.955114 826.844121,265.838971 C824.422801,260.505337 814.778664,239.400799 812.413727,234.193768 C810.658396,230.328945 809.050889,226.772309 807.512954,223.348142 C787.876529,179.62821 762.821502,162.914291 730.193615,170.229382 C700.165323,176.961651 663.452104,203.778733 614.319751,253.036122 C594.336361,273.070367 577.024598,288.355073 558.6776,302.856061 C555.412303,305.436867 552.187603,307.938185 548.376317,310.857827 C546.820977,312.049298 540.764958,316.667871 539.302803,317.78904 C532.452892,323.041497 528.231853,326.436876 524.408236,329.859241 C506.355318,346.017675 499.173041,362.530259 492.026151,406.598728 Z" opacity=".055" transform="rotate(129.6 681.557 428.701)"/>
    <path d="M464.851356,406.846225 C457.887373,449.936023 461.726304,499.277272 474.33937,542.857995 C486.469749,584.770936 505.3787,616.37084 525.184359,626.904574 C539.45654,634.495302 554.911479,639.835484 580.221408,646.627163 C585.399792,648.016734 604.493664,653.000637 604.818345,653.086145 C615.207569,655.822254 623.474831,658.088158 631.827286,660.527378 C653.515607,666.861157 673.395534,673.732664 693.871063,682.276754 C717.612903,692.183818 739.584244,682.582015 760.158642,656.196952 C777.144972,634.413306 792.58979,602.12347 807.490391,560.289095 C812.889281,545.13137 818.059242,529.188574 823.540207,511.116337 C825.634008,504.212503 827.680424,497.312701 830.181346,488.765078 C830.429153,487.918124 834.777551,473.007823 835.929027,469.09717 C845.793476,435.595414 843.511411,399.831813 830.657161,357.309409 C825.292224,339.561967 818.154481,320.71652 808.491333,298.155215 C804.601221,289.072667 800.386496,279.568059 794.963312,267.580485 C792.575977,262.303446 783.067195,241.422834 780.735449,236.271048 C779.004754,232.447229 777.419807,228.928328 775.903456,225.540489 C756.543163,182.285633 731.841359,165.750107 699.673582,172.987093 C670.067712,179.647712 633.870175,206.179956 585.427859,254.914244 C565.724847,274.736011 548.655961,289.858625 530.566367,304.205831 C527.346883,306.759266 524.16743,309.234054 520.409623,312.122727 C518.876108,313.301559 512.905087,317.871128 511.463457,318.980397 C504.709748,324.177076 500.548006,327.536385 496.778131,330.922367 C478.979146,346.908853 471.897865,363.245791 464.851356,406.846225 Z" opacity=".029" transform="rotate(122.4 651.72 428.714)"/>
    <path d="M437.676561,407.094058 C430.811755,449.721541 434.596018,498.533451 447.029463,541.646613 C458.986989,583.109515 477.626461,614.370059 497.149193,624.790311 C511.217882,632.299471 526.45257,637.582305 551.401937,644.301084 C556.506591,645.67575 575.328649,650.606208 575.648721,650.690803 C585.890089,653.397582 594.039702,655.639199 602.273302,658.052277 C623.653033,664.318182 643.250116,671.116058 663.434329,679.568595 C686.836138,689.368563 708.492927,679.870503 728.773578,653.769482 C745.517902,632.219684 760.742774,600.27627 775.43119,558.890686 C780.753215,543.895528 785.849573,528.123711 791.252509,510.245285 C793.316503,503.415485 795.333786,496.589674 797.799106,488.13371 C798.043385,487.29584 802.329885,472.545415 803.464971,468.676691 C813.188884,435.534561 810.939325,400.154782 798.268154,358.08866 C792.97961,340.531602 785.943499,321.888298 776.417933,299.568977 C772.583203,290.583834 768.42848,281.181153 763.082499,269.322131 C760.729149,264.101679 751.355724,243.444964 749.057169,238.348415 C747.351108,234.565595 745.788722,231.084423 744.293954,227.732908 C725.209793,184.943068 700.861211,168.585919 669.153554,175.744806 C639.970108,182.333781 604.288253,208.581225 556.535975,256.79248 C537.11334,276.401797 520.287332,291.362341 502.455143,305.555785 C499.281473,308.081852 496.147265,310.530115 492.442937,313.387823 C490.931247,314.554019 485.045224,319.074588 483.62412,320.17196 C476.966612,325.312867 472.864167,328.636111 469.148034,331.985717 C451.602979,347.800277 444.62269,363.961595 437.676561,407.094058 Z" opacity=".353" transform="rotate(115.2 621.88 428.727)"/>
    <path d="M410.501767,407.342245 C403.736136,449.507479 407.465732,497.790128 419.719558,540.435796 C431.504232,581.448724 449.874228,612.369957 469.114035,622.676742 C482.979231,630.104342 497.993669,635.329835 522.582473,641.975724 C527.613396,643.335488 546.16364,648.212509 546.479102,648.29619 C556.572615,650.973644 564.604579,653.190977 572.719324,655.577916 C593.790467,661.775957 613.104705,668.500214 632.997602,676.861211 C656.059372,686.554088 677.401603,677.159765 697.388509,651.342753 C713.890827,630.026768 728.895755,598.429728 743.371988,557.492871 C748.617148,542.660256 753.639903,527.059393 758.964809,509.374751 C760.998996,502.618976 762.987147,495.867145 765.416865,487.502826 C765.657616,486.674039 769.882218,472.083468 771.000913,468.256668 C780.584293,435.474107 778.367241,400.478095 765.879144,358.868187 C760.666995,341.501484 753.732514,323.060294 744.34453,300.982923 C740.565182,292.095172 736.470461,282.794404 731.201684,271.063914 C728.882319,265.900042 719.64425,245.467192 717.378886,240.425873 C715.69746,236.684046 714.157634,233.240598 712.68445,229.925402 C693.876417,187.600517 669.881058,171.421728 638.633531,178.502519 C609.872514,185.019859 574.706339,210.98254 527.644098,258.670832 C508.501842,278.06773 491.918712,292.866228 474.343926,306.905932 C471.21607,309.404635 468.127109,311.826375 464.47626,314.653124 C462.986395,315.806684 457.18537,320.278262 455.784792,321.363738 C449.223485,326.448882 445.180337,329.736065 441.517945,333.049299 C424.226815,348.691957 417.347517,364.677684 410.501767,407.342245 Z" opacity=".304" transform="rotate(108 592.042 428.74)"/>
    <path d="M383.326973,407.590799 C376.660517,449.293857 380.335446,497.047326 392.409654,539.225571 C404.021478,579.788591 422.122002,610.370567 441.078887,620.563898 C454.74059,627.909949 469.534775,633.078108 493.763015,639.651117 C498.720207,640.99598 516.998637,645.819571 517.30949,645.902339 C527.255148,648.550473 535.169462,650.743526 543.165354,653.10433 C563.927908,659.234518 582.959303,665.885166 602.560884,674.154638 C625.282604,683.740428 646.310272,674.449835 666.003433,648.916798 C682.263748,627.834592 697.048734,596.583873 711.312783,556.095677 C716.481079,541.42558 721.430231,525.995646 726.677108,508.50476 C728.681488,501.822998 730.640507,495.145135 733.034623,486.87245 C733.271846,486.052744 737.43455,471.622002 738.536854,467.837119 C747.979703,435.414073 745.795156,400.801765 733.490134,359.648002 C728.354378,342.471626 721.521527,324.232519 712.271125,302.397063 C708.547159,293.606688 704.512439,284.407818 699.320866,272.805843 C697.035486,267.698541 687.932774,247.489523 685.7006,242.503426 C684.043809,238.802586 682.526543,235.396856 681.074943,232.117973 C662.543035,190.257979 638.9009,174.257532 608.113514,181.260233 C579.774928,187.705946 545.124432,213.383905 498.752228,260.549307 C479.890352,279.733817 463.5501,294.370292 446.232719,308.25628 C443.150677,310.727624 440.106962,313.122846 436.509592,315.918639 C435.041553,317.059566 429.325525,321.482159 427.945473,322.55574 C421.480367,327.585129 417.496516,330.836256 413.887864,334.113123 C396.850656,349.583905 390.072345,365.394069 383.326973,407.590799 Z" opacity=".063" transform="rotate(100.8 562.204 428.754)"/>
    <path d="M356.152179,407.839739 C349.584897,449.080695 353.20516,496.305068 365.099751,538.015965 C376.538727,578.129147 394.369783,608.37192 413.043749,618.451811 C426.501956,625.716324 441.075889,630.827158 464.943563,637.327296 C469.827025,638.657261 487.833641,643.427431 488.139885,643.509286 C497.937687,646.128103 505.734353,648.29688 513.61139,650.631553 C534.065357,656.693899 552.813909,663.27095 572.124175,671.448913 C594.505835,680.927621 615.218934,671.740751 634.61835,646.491653 C650.636665,625.64319 665.201709,594.738737 679.253577,554.699131 C684.345009,540.191527 689.220558,524.932496 694.389405,507.635335 C696.363978,501.027575 698.293865,494.42367 700.652379,486.242603 C700.886074,485.431976 704.986879,471.16104 706.072794,467.418068 C715.375113,435.354476 713.223072,401.12581 701.101122,360.428117 C696.041759,343.442038 689.310538,325.404984 680.197717,303.811404 C676.529133,295.118391 672.554414,286.021403 667.440045,274.547922 C665.18865,269.497183 656.221294,249.511961 654.022311,244.581078 C652.390155,240.921219 650.895449,237.553202 649.465433,234.310627 C631.209649,192.915455 607.920737,177.093332 577.593503,184.017949 C549.677352,190.392043 515.542534,215.785322 469.860367,262.427911 C451.27887,281.400065 435.181497,295.874544 418.121521,309.606839 C418.866124,309.007477 391.654961,330.257373 386.257792,335.177202 C369.474501,350.476134 362.797175,366.110765 356.152179,407.839739 Z" opacity=".869" transform="rotate(93.6 532.366 428.768)"/>
    <path d="M328.977386,408.089083 C322.509277,448.868013 326.074874,495.563379 337.78985,536.807006 C349.055979,576.470424 366.617571,606.37405 385.00862,616.340518 C398.263333,623.523504 412.617011,628.57702 436.124119,635.004298 C440.93385,636.319368 458.668652,641.036125 458.970287,641.117067 C468.620234,643.706573 476.299251,645.851078 484.057434,648.159625 C504.202814,654.15414 522.668524,660.657606 541.687475,668.744074 C563.729065,678.115706 584.127588,669.032553 603.233261,644.067356 C619.009578,623.452597 633.354681,592.894353 647.194368,553.303263 C652.208936,538.958127 657.010883,523.869971 662.101701,506.766503 C664.046467,500.232733 665.947221,493.702773 668.270134,485.61331 C668.500301,484.811762 672.539208,470.700605 673.608732,466.999538 C682.770524,435.295337 680.650988,401.450248 668.712108,361.208548 C663.729138,344.412735 657.099547,326.5777 648.124306,305.225956 C644.511103,296.630289 640.596386,287.635167 635.559221,276.29016 C633.34181,271.295973 624.509811,251.534513 622.344018,246.658834 C620.736498,243.03995 619.264353,239.709639 617.85592,236.503366 C599.876257,195.572947 576.940569,179.929128 547.073498,186.775666 C519.579785,193.07815 485.960644,218.186794 440.968515,264.306649 C422.667398,283.066483 406.812904,297.378991 390.010333,310.957619 C390.743583,310.365059 363.943316,331.376907 358.627729,336.241547 C342.098351,351.368657 335.522006,366.827786 328.977386,408.089083 Z" opacity=".958" transform="rotate(86.4 502.527 428.783)"/>
    <path d="M301.802594,408.338849 C295.433656,448.655836 298.944587,494.822287 310.47995,535.598726 C321.573234,574.812456 338.865366,604.376996 356.973502,614.230055 C370.024719,621.331526 384.158141,626.327733 407.304682,632.682163 C412.040683,633.982339 429.50367,638.645693 429.800696,638.725723 C439.302788,641.285922 446.864156,643.406159 454.503486,645.688584 C474.34028,651.615281 492.523148,658.045176 511.250785,666.040165 C532.952293,675.304726 553.036234,666.325282 571.848165,641.643947 C587.382486,621.262851 601.50765,591.050757 615.135158,551.908107 C620.072862,537.725409 624.801206,522.8081 629.813996,505.898293 C631.728954,499.4385 633.600577,492.982473 635.887887,484.984598 C636.114526,484.192126 640.091535,470.240722 641.144669,466.581553 C650.165936,435.236678 648.078904,401.775096 636.323093,361.989309 C631.416515,345.383728 624.888553,327.750678 616.050892,306.64073 C612.493071,298.142392 608.638355,289.249118 603.678394,278.032563 C601.494968,273.09492 592.798325,253.557184 590.665723,248.7367 C589.082838,245.158783 587.633253,241.866172 586.246404,238.696194 C568.542859,198.230454 545.960395,182.76492 516.553499,189.533384 C489.482228,195.764268 456.378763,220.588322 412.076671,266.185528 C394.055934,284.733077 378.44432,298.883642 361.899155,312.308629 C362.621053,311.722871 336.231681,332.496711 330.997676,337.30617 C314.722205,352.261487 308.246839,367.545148 301.802594,408.338849 Z" opacity=".46" transform="rotate(79.2 472.689 428.798)"/>
    <path d="M274.627802,408.589058 C268.358035,448.444187 271.814301,494.08182 283.170052,534.391157 C294.090492,573.155279 311.113168,602.380795 328.938395,612.120464 C341.786115,619.140432 355.699281,624.079338 378.485253,630.360932 C383.147523,631.646218 400.338695,636.256177 400.631113,636.335294 C409.98535,638.866193 417.42907,640.962167 424.949547,643.218474 C444.477754,649.077365 462.377781,655.433702 480.814105,663.33723 C502.17552,672.494725 521.944872,663.618982 540.463062,639.221469 C555.755389,619.073994 569.660616,589.207987 583.075945,550.513696 C587.936786,536.493409 592.591527,521.746914 597.526288,505.030733 C599.41144,498.644905 601.25393,492.262798 603.505639,484.356494 C603.72875,483.573098 607.643861,469.781418 608.680604,466.164139 C617.561348,435.178523 615.506821,402.100375 603.934076,362.770416 C599.10389,346.355034 592.677557,328.923932 583.977476,308.055735 C580.475036,299.65471 576.680321,290.863266 571.797563,279.77514 C569.648122,274.894031 561.086835,255.579978 558.987424,250.81468 C557.429174,247.277723 556.00215,244.022806 554.636885,240.889117 C537.209455,200.887978 514.980215,185.600706 486.033508,192.291104 C459.384682,198.450396 426.796891,222.989909 383.184836,268.064555 C365.44448,286.399857 350.075746,300.388508 333.787987,313.659882 C334.498534,313.080924 308.520057,333.616798 303.367632,338.371086 C287.346064,353.15464 280.971673,368.262867 274.627802,408.589058 Z" opacity=".472" transform="rotate(72 442.85 428.814)"/>
    <path d="M247.45301,408.839732 C241.282413,448.233092 244.684015,493.34201 255.860155,533.184334 C266.607754,571.498932 283.360979,600.385491 300.9033,610.011786 C313.547521,616.950265 327.24043,621.83188 349.665832,628.04065 C354.254371,629.311047 371.173729,633.867622 371.461538,633.945827 C380.667921,636.44743 387.993992,638.519145 395.395616,640.749341 C414.615238,646.540438 432.232425,652.823233 450.377435,660.635317 C471.398745,669.685753 490.853501,660.913703 509.077951,636.799967 C524.128288,616.886069 537.813579,587.366083 551.01673,549.120067 C555.800707,535.262159 560.381847,520.686448 565.238579,504.163857 C567.093924,497.851979 568.907282,491.543777 571.123389,483.729029 C571.342972,482.954706 575.196185,469.32272 576.216537,465.747324 C584.956762,435.120894 582.934738,402.426106 571.545058,363.551887 C566.791263,347.326666 560.466558,330.097474 551.904056,309.470984 C548.456997,301.167253 544.722284,292.477621 539.916729,281.517899 C537.801273,276.693313 529.375343,257.602903 527.309122,252.89278 C525.775507,249.396775 524.371043,246.179545 523.027362,243.082139 C505.876044,203.54552 484.000029,188.436488 455.513523,195.048825 C429.287147,201.136536 397.215028,225.39156 354.29301,269.943736 C336.833036,288.066832 321.707183,301.893599 305.676831,315.011388 C306.376025,314.43923 280.808443,334.737182 275.737599,339.436308 C259.969927,354.048131 253.696509,368.980961 247.45301,408.839732 Z" opacity=".423" transform="rotate(64.8 413.012 428.83)"/>
    <path d="M220.278219,409.090893 C214.206791,448.022578 217.553729,492.602887 228.55026,531.978293 C239.125019,569.843456 255.608798,598.391127 272.868216,607.904068 C285.308939,614.76107 298.781589,619.585404 320.84642,625.721363 C325.361228,626.976875 342.008771,631.480076 342.291971,631.557369 C351.3505,634.029682 358.558923,636.077144 365.841694,638.281233 C384.752732,644.004551 402.087079,650.213817 419.940777,657.934477 C440.621968,666.877859 459.762121,658.209493 477.692833,634.379489 C492.501181,614.699122 505.966537,585.525088 518.957513,547.727258 C523.664627,534.031697 528.172164,519.626736 532.950869,503.297697 C534.776407,497.059755 536.560633,490.825445 538.741138,483.102234 C538.957193,482.336982 542.748507,468.86466 543.75247,465.331138 C552.352176,435.06382 550.362655,402.752311 539.156038,364.333739 C534.478633,348.298643 528.255556,331.27132 519.830633,310.886489 C516.438955,302.680032 512.764243,294.092192 508.035891,283.26085 C505.95442,278.492776 497.663846,259.625965 495.630817,254.971006 C494.121837,251.515946 492.739933,248.336395 491.417836,245.275265 C474.542628,206.20308 453.019836,191.272265 424.993546,197.806547 C399.189623,203.822689 367.633175,227.793275 325.401194,271.82308 C308.221603,289.734011 293.33863,303.398927 277.565685,316.363161 C278.253529,315.797802 253.09684,335.857877 248.107576,340.501852 C232.593796,354.941978 226.421347,369.699449 220.278219,409.090893 Z" opacity=".11" transform="rotate(57.6 383.174 428.847)"/>
    <path d="M193.103429,409.342568 C187.131169,447.812676 190.423443,491.864488 201.240366,530.773075 C211.642288,568.188896 227.856625,596.397751 244.833145,605.797357 C257.070368,612.572897 270.322757,617.33996 292.027017,623.403122 C296.468093,624.643752 312.843822,629.09359 313.122414,629.169971 C322.033088,631.613001 329.123864,633.636213 336.287782,635.814201 C354.890236,641.469755 371.941744,647.605509 389.504131,655.234764 C409.84519,664.071098 428.670731,655.506408 446.307707,631.960088 C460.874069,612.513203 474.119493,583.685049 486.898294,546.335311 C491.528545,532.802064 495.96248,518.567818 500.663156,502.43229 C502.458887,496.268269 504.213982,490.107835 506.358885,482.476142 C506.571412,481.71996 510.300828,468.407269 511.2884,464.915613 C519.747591,435.007328 517.790573,403.079014 506.767016,365.115992 C502.166002,349.27098 496.044552,332.445485 487.757206,312.302263 C484.42091,304.193061 480.806199,295.706991 476.15505,285.004003 C474.107563,280.292429 465.952346,261.649171 463.952508,257.049366 C462.468163,253.635242 461.10882,250.493362 459.808307,247.4685 C443.209204,208.860659 422.039637,194.108036 394.473577,200.564271 C369.092111,206.508854 338.051333,230.19506 296.509389,273.702596 C279.61018,291.401405 264.970089,304.904503 249.454551,317.715215 C250.131045,317.156654 225.385249,336.978899 220.477564,341.567734 C205.21767,355.836198 199.146186,370.41835 193.103429,409.342568 Z" opacity=".069" transform="rotate(50.4 353.335 428.864)"/>
    <path d="M165.928639,409.594781 C160.055546,447.603417 163.293157,491.126849 173.930474,529.568721 C184.15956,566.535298 200.104461,594.405413 216.798086,603.691706 C228.831809,610.385799 241.863937,615.095602 263.207623,621.085981 C267.574968,622.311732 283.678881,626.708218 283.952865,626.783687 C292.715685,629.197441 299.688814,631.19641 306.733879,633.348302 C325.027751,638.936107 341.79642,644.998366 359.067496,652.536236 C379.068409,661.26553 397.579332,652.804505 414.922572,629.541819 C429.246952,610.328364 442.272444,581.846014 454.839072,544.94427 C459.39246,531.573302 463.752793,517.509733 468.375442,501.567675 C470.141366,495.477558 471.867329,489.390985 473.97663,481.85079 C474.185629,481.103676 477.853147,467.950582 478.824328,464.500782 C487.143007,434.951447 485.218491,403.406242 474.377992,365.898666 C469.853368,350.243697 463.833544,333.619986 455.683777,313.71832 C452.402861,305.706351 448.848151,297.32203 444.274206,286.747367 C442.260703,282.092281 434.240843,263.672528 432.274195,259.127864 C430.814486,255.754668 429.477703,252.650452 428.198774,249.661851 C411.875774,211.51826 391.05943,196.943802 363.953616,203.321997 C338.994611,209.195032 308.469501,232.596918 267.617594,275.582291 C250.998768,293.069025 236.601559,306.410339 221.34343,319.067563 C222.008574,318.515799 197.67367,338.100266 192.847564,342.633971 C177.84155,356.730811 171.871027,371.137686 165.928639,409.594781 Z" opacity=".258" transform="rotate(43.2 323.497 428.882)"/>
    <path d="M138.753849,409.847562 C132.979922,447.394834 136.16287,490.390011 146.620584,528.365277 C156.676837,564.882713 172.352306,592.414169 188.763042,601.587171 C200.593263,608.199832 213.405128,612.852386 234.388239,618.769997 C238.681853,619.980873 254.513951,624.324018 254.783326,624.398577 C263.398293,626.78306 270.253774,628.757792 277.179988,630.883595 C295.165277,636.403667 311.651109,642.392448 328.630874,649.838955 C348.291627,658.461215 366.487922,650.103847 383.537429,627.124741 C397.61983,608.144662 410.425392,580.008035 422.779847,543.554183 C427.256373,530.345456 431.543105,516.452525 436.087726,500.703893 C437.823843,494.687664 439.520674,488.674935 441.594374,481.226217 C441.799844,480.488169 445.405464,467.494635 446.360255,464.086682 C454.538424,434.89621 452.64641,403.734021 441.988967,366.681785 C437.540732,351.216813 431.622534,334.79484 423.610344,315.134674 C420.384809,307.219917 416.890099,298.93732 412.393357,288.490955 C410.413839,283.892344 402.529335,265.696045 400.595878,261.206511 C399.160804,257.874232 397.846582,254.807671 396.589237,251.855322 C380.542336,214.175882 360.079216,199.779561 333.433664,206.079724 C308.897125,211.881225 278.88768,234.998852 238.72581,277.462176 C222.387368,294.736882 208.233042,307.916451 193.232321,320.420221 C193.886117,319.875253 169.962103,339.221995 165.217576,343.700583 C150.465435,357.625837 144.59587,371.857479 138.753849,409.847562 Z" opacity=".348" transform="rotate(36 293.659 428.9)"/>
    <path d="M111.57906,410.100941 C105.904298,447.186963 109.032584,489.654016 119.310695,527.162791 C129.194117,563.231195 144.60016,590.424077 160.728012,599.48381 C172.354731,606.015056 184.946331,610.610373 205.568865,616.455233 C209.788748,617.651236 225.349031,621.941055 225.613798,622.014703 C234.080911,624.369923 240.818745,626.320422 247.626107,628.420143 C265.302815,633.872499 281.505811,639.78782 298.194266,647.142988 C317.514843,655.658222 335.396502,647.404499 352.152277,624.708917 C365.992701,605.962157 378.578336,578.17117 390.72062,542.1651 C395.120284,529.118575 399.333415,515.396242 403.800008,499.840989 C405.506318,493.89863 407.174017,487.959726 409.212116,480.602464 C409.414058,479.873479 412.957779,467.039468 413.89618,463.673353 C421.933842,434.841652 420.074329,404.062381 409.599939,367.46537 C405.228093,352.190351 399.411521,335.970066 391.536907,316.551342 C388.366753,308.733773 384.932044,300.552877 380.512504,290.234777 C378.566971,285.692629 370.817823,267.719731 368.917558,263.285312 C367.507119,259.993942 366.215457,256.965027 364.979696,254.048921 C349.208891,216.833527 329.098995,202.615315 302.91372,208.837453 C278.799652,214.567432 249.305871,237.400867 209.834037,279.34226 C193.77598,296.40499 179.864538,309.422853 165.121226,321.773205 C165.763673,321.235033 142.25055,340.344105 137.5876,344.767588 C123.089326,358.521299 117.320715,372.577755 111.57906,410.100941 Z" opacity=".763" transform="rotate(28.8 263.82 428.92)"/>
    <path d="M84.4042721,410.35495 C78.8286739,446.979843 81.9022981,488.918909 92.0008086,525.961316 C101.711402,561.580801 116.848025,588.435198 132.692996,597.381687 C144.116212,603.831536 156.487546,608.36963 176.749503,614.141754 C180.895653,615.322889 196.184121,619.559394 196.44428,619.632131 C204.76354,621.958095 211.383727,623.88437 218.072238,625.958015 C235.440366,631.342672 251.360525,637.184554 267.757672,644.448407 C286.738057,652.856621 304.305071,644.706532 320.767116,622.294416 C334.365567,603.780915 346.731275,576.335478 358.66139,540.777075 C362.984192,527.892712 367.123722,514.340932 371.512288,498.979009 C373.188792,493.110502 374.827359,487.245405 376.829856,479.979576 C377.02827,479.259652 380.510093,466.585123 381.432103,463.260834 C389.329261,434.787808 387.502248,404.391354 377.21091,368.249449 C372.915452,353.164332 367.200505,337.145684 359.463466,317.968341 C356.348693,310.247935 352.973984,302.168715 348.631648,291.978848 C346.720099,287.493147 339.106308,269.743593 337.239233,265.364276 C335.853429,262.113805 334.584328,259.122526 333.370151,256.242655 C317.875439,219.491197 298.118765,205.451062 272.393787,211.595184 C248.702194,217.253655 219.724074,239.802966 180.942276,281.222554 C165.164605,298.073362 151.496047,310.929559 137.010145,323.126535 C137.641244,322.595156 114.53901,341.466618 109.957637,345.83501 C95.7132228,359.417221 90.0455624,373.298539 84.4042721,410.35495 Z" opacity=".428" transform="rotate(21.6 233.982 428.94)"/>
    <path d="M57.2294844,410.609624 C51.7530488,446.773516 54.7720119,488.18474 64.6909238,524.760906 C74.2286907,559.931593 89.0958995,586.447601 104.657997,595.280872 C115.877708,601.649342 128.028775,606.130225 147.930151,611.829633 C152.00257,612.995902 167.019223,617.179107 167.274774,617.250934 C175.446181,619.547651 181.948722,621.449707 188.518381,623.497283 C205.57793,628.814261 221.215254,634.582724 237.321093,641.755287 C255.961268,650.056489 273.213629,642.010024 289.381945,619.88131 C302.738426,601.601005 314.884211,574.501024 326.602157,539.390168 C330.848098,526.667922 334.914027,513.28665 339.224565,498.118006 C340.871263,492.32333 342.480698,486.532021 344.447594,479.357599 C344.64248,478.646734 348.062405,466.131645 348.968025,462.849172 C356.724681,434.734719 354.930168,404.720973 344.821878,369.034048 C340.602808,354.138783 334.989486,338.321717 327.390022,319.385689 C324.330629,311.76242 321.015921,303.784848 316.750787,293.72318 C314.873223,289.293912 307.394788,271.767644 305.560904,267.443414 C304.199736,264.23383 302.953195,261.280178 301.760602,258.436532 C286.541978,222.148892 267.138526,208.286802 241.873863,214.352917 C218.604751,219.939894 190.14229,242.205156 152.050527,283.103071 C136.553243,299.742013 123.127569,312.436588 108.899078,324.480227 C109.51883,323.955641 86.8274845,342.589556 82.3276875,346.90287 C68.337126,360.313627 62.7704115,374.019861 57.2294844,410.609624 Z" opacity=".012" transform="rotate(14.4 204.144 428.96)"/>
    <path d="M30.0546826,410.338183 C24.6774367,445.944706 27.6417258,486.717767 37.3809967,522.730253 C46.7458936,557.358432 61.3435903,583.465346 76.6227612,592.161871 C87.638991,598.432035 99.569816,602.843798 119.11064,608.455337 C123.109329,609.603641 137.854169,613.72242 138.10511,613.793145 C146.12866,616.054505 152.51355,617.927282 158.964353,619.943343 C175.715308,625.178496 191.069782,630.858192 206.884299,637.920383 C225.184514,646.092597 242.122379,638.17109 257.996953,616.384665 C271.11141,598.386253 283.037234,571.703887 294.542986,537.134045 C298.712059,524.607772 302.704382,511.432614 306.936889,496.497606 C308.553779,490.792178 310.134082,485.090062 312.065375,478.026134 C312.256733,477.32622 315.61476,465.003855 316.50399,461.771927 C324.120078,434.091067 322.358078,404.540089 312.432893,369.403258 C308.290222,354.737504 302.778536,339.164122 295.31666,320.519805 C292.31265,313.013957 289.057944,305.159256 284.870016,295.252554 C283.026437,290.891499 275.683358,273.635131 273.882665,269.377488 C272.546131,266.217326 271.322151,263.309156 270.151141,260.509296 C255.20867,224.782154 236.158411,211.134969 211.353801,217.106999 C188.507081,222.607642 160.560296,244.529619 123.158563,284.797088 C107.941656,301.179921 94.7588596,313.679118 80.7877724,325.537395 C81.396171,325.021003 59.1157228,343.367802 54.697509,347.614558 C40.9609059,360.818087 35.4952171,374.31258 30.0546826,410.338183 Z" opacity=".175" transform="rotate(7.2 174.305 428.406)"/>
    <path d="M2.8869416,410.26333 C-2.40540423,445.400015 0.512087265,485.635132 10.0975963,521.172457 C19.3145276,555.343317 33.6815425,581.10538 48.7185453,589.686621 C59.5605997,595.873911 71.3029033,600.227404 90.5351044,605.764869 C94.4706834,606.898028 108.98286,610.962498 109.229856,611.032295 C117.126846,613.26385 123.411032,615.111946 129.760099,617.10144 C146.24691,622.267619 161.359277,627.872488 176.924435,634.841641 C194.933627,642.905086 211.602278,635.088944 227.225422,613.591084 C240.13272,595.8303 251.870271,569.499969 263.194394,535.386188 C267.297672,523.025113 271.226992,510.023703 275.392708,495.285645 C276.984083,489.655451 278.53945,484.028523 280.440269,477.057738 C280.628607,476.367054 283.933651,464.207151 284.808851,461.017831 C292.304625,433.702467 290.570455,404.541577 280.801994,369.86845 C276.724717,355.396167 271.300027,340.028204 263.95592,321.629791 C260.999316,314.222925 257.79597,306.471801 253.674125,296.695731 C251.859636,292.39218 244.632418,275.36333 242.860134,271.161818 C241.544688,268.043319 240.340017,265.173488 239.187483,262.410539 C224.481381,227.155896 205.733445,213.689898 181.322653,219.582598 C158.837496,225.010456 131.332107,246.643047 94.5210151,286.379053 C79.5441017,302.545993 66.5692009,314.880493 52.8184432,326.582515 C53.4171244,326.073032 31.4883882,344.177796 27.1400058,348.368445 C13.6207699,361.397283 8.2415469,374.713294 2.8869416,410.26333 Z" opacity=".027"/>
  </g>
</svg>
