<svg version="1" xmlns="http://www.w3.org/2000/svg" width="933.333" height="933.333" viewBox="0 0 700.000000 700.000000"><path d="M335.5 29.3c-33.1 16.8-64.4 33-69 35.7-1.6.9-7.3 4-12.5 6.8-15.8 8.3-31 16.6-39.8 21.6-4.5 2.5-10.4 5.8-13 7.2-14.7 8.1-46.5 27-46.8 27.9-.2.5 4.3 12.7 10.1 27 5.9 14.3 12 29.4 13.7 33.7l3.1 7.6-3 3.9c-5.6 7-15.1 22.9-20.4 33.9-4.7 9.9-13.1 33.1-14.3 39.4-.2 1.4-.9 4.6-1.5 7.3-.6 2.6-1.4 6.4-1.7 8.5-.3 2-.7 4.4-.9 5.2-1.8 6.6-2.4 37.2-1.2 51.6.9 9 .9 9.3 3.7 23 8 39 27.7 75.8 55.6 103.9 12.2 12.3 15.5 15.2 26.9 23.6 24.8 18.2 49.9 29.6 79.7 36.2l10.3 2.3 9.2 24.5c5 13.4 11.3 30.2 13.8 37.4 2.6 7.1 6.5 17.9 8.7 24 2.2 6 8 22.7 12.9 37 5 14.2 9.1 26.1 9.3 26.2.1.2.2-32.7.2-73.2l-.2-73.4 2.6-.5c1.4-.3 6.1-1 10.5-1.6 4.4-.7 10.7-1.8 14-2.6 3.3-.7 6.2-1.4 6.5-1.4.3 0 .5 13.7.5 30.5-.1 16.8.2 29.9.6 29.2.4-.7 2.5-7.5 4.7-15.2 14.5-51.1 15-52.4 19-52.5 2.4 0 23.9-10.7 33.4-16.6 21.5-13.3 42.8-32.1 57.1-50.5 14.1-18.2 26.3-40.2 32.7-58.9 1.2-3.6 2.6-7.4 3-8.5.8-2 2.9-9.5 3.5-12.4.2-.9.8-3.6 1.4-6.1 1.5-6.6 3.1-17.6 3.8-25.5 1.3-13.9.6-41.6-1.2-50.6-.3-1.3-1-5.3-1.6-8.8-.5-3.6-1.2-6.7-1.4-7.1-.2-.3-.6-1.9-.9-3.4-2.3-12.6-14.7-44-21.8-55-.7-1.1-3.3-5.2-5.7-9-2.4-3.9-5.9-9.1-7.8-11.5-2-2.7-3.1-5.1-2.7-6 .3-.9.7-2.3.9-3.1.2-.9 1.5-5.5 3-10.4 1.5-4.8 2.5-8.9 2.3-9-.1-.1-21.4-15.5-47.3-34.1-25.8-18.6-49.5-35.6-52.5-37.9-3-2.2-7.7-5.6-10.5-7.5-2.7-1.9-5.2-3.7-5.5-4-.8-1-5.9-4.1-6.7-4.1-.4 0-.7 7.9-.6 17.5.2 13.3-.1 17.5-1 17.5-.6 0-5.5-.9-10.7-1.9-5.2-1.1-12.2-2.2-15.4-2.6-3.3-.3-6.2-.8-6.5-1-.3-.2-.6-22.6-.6-49.9 0-32.4-.3-49.6-1-49.6-.5.1-14.5 6.9-31 15.3zm41 115.3c6.9.8 24.2 4.7 25 5.6.3.3.8 341 .5 349.9 0 1.2-2.4 2.2-8.7 3.7-6.6 1.6-22 4.2-24.7 4.2-.3 0-1-357.8-.7-363.3.1-1.3.6-1.7 1.9-1.3.9.3 4 .8 6.7 1.2zM212.9 275c10 25 18.6 46.4 19.1 47.5 1.8 4.2 27 68.3 42.5 108 3.4 8.7 24.4 63.3 26.1 67.9.8 2.1 1.4 4 1.2 4.1-.8.7-21.2-7-31.1-11.8-43.8-21-75.7-56.4-93.2-103.2-2.8-7.5-7.2-23.9-7.9-29.5-.2-1.9-.7-5.1-1-7-2.5-15.5-2.1-41.2.9-57 .3-1.4.7-3.6 1-4.9 2.1-11.4 9.1-32.4 14-42.2 3.1-6.2 9.8-18 10.1-17.6 0 .1 8.3 20.7 18.3 45.7zm301-31.1c6.8 13.8 13.6 33.4 15.5 44.6 1.2 7.1 2.8 17.3 3.1 20.5.6 5.1.6 28.8 0 33.5-1.9 14.8-2.6 18.5-5 28.5-5.6 22.4-17.2 46.5-31.5 65.5-4.9 6.5-4.9 6.4-13.6 15.6-13.9 14.6-30.4 27.2-45.4 34.9-4 2-4.2 2-3.6.3.4-1 4.6-15.1 9.3-31.3 4.7-16.2 12.1-41.9 16.5-57 4.4-15.1 10.4-35.8 13.3-46 2.9-10.2 7.9-27.3 11-38 10.3-35.5 14.7-50.5 15.1-52 .2-.8 2.2-7.8 4.4-15.5s4-14.1 4-14.3c0-.2.5 0 1.1.3.6.4 3.2 5 5.8 10.4z"/></svg>